<svg width="160" height="65" viewBox="0 0 160 65" fill="none" xmlns="http://www.w3.org/2000/svg">
<circle cx="32.2363" cy="32.2363" r="32.2363" fill="#E1EEE8"/>
<circle cx="32.2365" cy="32.2365" r="23.753" fill="#BCE2D2"/>
<path d="M38.48 48.1938C37.2855 48.1938 36.0911 48.0988 34.8966 47.9088C33.7022 47.7459 32.5756 47.488 31.5169 47.1351C30.4582 46.7551 29.5081 46.2936 28.6665 45.7506C28.1779 45.4249 27.8386 45.0313 27.6486 44.5698C27.4585 44.1083 27.3907 43.6604 27.445 43.226C27.5264 42.7645 27.7029 42.3709 27.9743 42.0452C28.2729 41.6923 28.6394 41.4751 29.0737 41.3937C29.5081 41.3122 29.9831 41.4344 30.4989 41.7601C31.6934 42.4659 32.9557 42.9817 34.2858 43.3075C35.616 43.6332 37.014 43.7961 38.48 43.7961C40.6245 43.7961 42.1854 43.4432 43.1627 42.7374C44.14 42.0044 44.6286 41.0679 44.6286 39.9278C44.6286 38.9776 44.2757 38.2311 43.5699 37.6882C42.8912 37.1453 41.7104 36.6973 40.0273 36.3444L35.5481 35.4079C32.9692 34.865 31.0419 33.9556 29.766 32.6797C28.5172 31.3767 27.8929 29.6664 27.8929 27.549C27.8929 26.2189 28.1643 25.0108 28.7073 23.925C29.2502 22.8391 30.0103 21.9026 30.9876 21.1153C31.992 20.3281 33.1728 19.7309 34.5302 19.3237C35.9146 18.8893 37.4348 18.6722 39.0907 18.6722C40.7195 18.6722 42.2669 18.8758 43.7328 19.283C45.1987 19.6902 46.5153 20.2874 47.6826 21.0746C48.1169 21.3732 48.4019 21.7397 48.5377 22.174C48.7005 22.6084 48.7413 23.0427 48.6598 23.4771C48.5784 23.8843 48.3884 24.2372 48.0898 24.5358C47.7911 24.8344 47.4111 25.0108 46.9496 25.0651C46.5153 25.1194 46.0131 24.9837 45.443 24.6579C44.4386 24.0879 43.4206 23.6807 42.389 23.4364C41.3575 23.192 40.2445 23.0699 39.05 23.0699C37.8013 23.0699 36.729 23.2463 35.8332 23.5992C34.9374 23.9521 34.2451 24.4543 33.7565 25.1059C33.295 25.7302 33.0643 26.4767 33.0643 27.3454C33.0643 28.3227 33.39 29.1099 34.0415 29.7072C34.693 30.2772 35.806 30.7251 37.3805 31.0509L41.819 31.9874C44.5064 32.5575 46.5017 33.4534 47.8047 34.6749C49.1349 35.8965 49.8 37.5253 49.8 39.5613C49.8 40.8643 49.5285 42.0452 48.9856 43.1039C48.4698 44.1626 47.7097 45.072 46.7053 45.8321C45.728 46.5922 44.5472 47.1758 43.1627 47.583C41.7782 47.9902 40.2173 48.1938 38.48 48.1938ZM56.3094 48.1124C55.495 48.1124 54.8706 47.8952 54.4363 47.4609C54.0019 46.9994 53.7848 46.3479 53.7848 45.5063V21.3189C53.7848 20.4774 54.0019 19.8395 54.4363 19.4051C54.8706 18.9708 55.495 18.7536 56.3094 18.7536C57.1238 18.7536 57.7481 18.9708 58.1825 19.4051C58.644 19.8395 58.8747 20.4774 58.8747 21.3189V31.8653H58.3046C58.9018 30.4265 59.8248 29.3407 61.0736 28.6077C62.3494 27.8476 63.7882 27.4676 65.3898 27.4676C66.9915 27.4676 68.3081 27.7662 69.3396 28.3634C70.3712 28.9606 71.1448 29.87 71.6606 31.0916C72.1764 32.2861 72.4343 33.8063 72.4343 35.6522V45.5063C72.4343 46.3479 72.2171 46.9994 71.7828 47.4609C71.3484 47.8952 70.7241 48.1124 69.9097 48.1124C69.0953 48.1124 68.4574 47.8952 67.9959 47.4609C67.5615 46.9994 67.3444 46.3479 67.3444 45.5063V35.8965C67.3444 34.3492 67.0458 33.2226 66.4485 32.5168C65.8785 31.811 64.9826 31.4581 63.761 31.4581C62.268 31.4581 61.0736 31.9332 60.1777 32.8833C59.309 33.8063 58.8747 35.0414 58.8747 36.5888V45.5063C58.8747 47.2437 58.0196 48.1124 56.3094 48.1124ZM80.1287 48.0717C79.3143 48.0717 78.6899 47.8273 78.2556 47.3387C77.8213 46.8501 77.6041 46.1714 77.6041 45.3027V30.3587C77.6041 29.4628 77.8213 28.7842 78.2556 28.3227C78.6899 27.8341 79.3143 27.5897 80.1287 27.5897C80.9431 27.5897 81.5675 27.8341 82.0018 28.3227C82.4633 28.7842 82.694 29.4628 82.694 30.3587V45.3027C82.694 46.1714 82.4769 46.8501 82.0425 47.3387C81.6082 47.8273 80.9702 48.0717 80.1287 48.0717ZM80.1287 23.8028C79.1786 23.8028 78.432 23.5721 77.8891 23.1106C77.3733 22.622 77.1155 21.9569 77.1155 21.1153C77.1155 20.2467 77.3733 19.5816 77.8891 19.1201C78.432 18.6586 79.1786 18.4279 80.1287 18.4279C81.106 18.4279 81.8525 18.6586 82.3683 19.1201C82.884 19.5816 83.1419 20.2467 83.1419 21.1153C83.1419 21.9569 82.884 22.622 82.3683 23.1106C81.8525 23.5721 81.106 23.8028 80.1287 23.8028ZM90.5074 48.1124C89.693 48.1124 89.0686 47.8952 88.6343 47.4609C88.2 46.9994 87.9828 46.3479 87.9828 45.5063V30.1144C87.9828 29.2728 88.2 28.6349 88.6343 28.2005C89.0686 27.7662 89.6794 27.549 90.4667 27.549C91.2539 27.549 91.8647 27.7662 92.2991 28.2005C92.7334 28.6349 92.9506 29.2728 92.9506 30.1144V32.8833L92.5027 31.8653C93.0999 30.4265 94.0229 29.3407 95.2716 28.6077C96.5475 27.8476 97.9862 27.4676 99.5879 27.4676C101.189 27.4676 102.506 27.7662 103.538 28.3634C104.569 28.9606 105.343 29.87 105.859 31.0916C106.374 32.2861 106.632 33.8063 106.632 35.6522V45.5063C106.632 46.3479 106.415 46.9994 105.981 47.4609C105.546 47.8952 104.922 48.1124 104.108 48.1124C103.293 48.1124 102.655 47.8952 102.194 47.4609C101.76 46.9994 101.542 46.3479 101.542 45.5063V35.8965C101.542 34.3492 101.244 33.2226 100.647 32.5168C100.076 31.811 99.1807 31.4581 97.9591 31.4581C96.466 31.4581 95.2716 31.9332 94.3758 32.8833C93.5071 33.8063 93.0727 35.0414 93.0727 36.5888V45.5063C93.0727 47.2437 92.2176 48.1124 90.5074 48.1124ZM121.616 48.1938C119.362 48.1938 117.421 47.773 115.793 46.9315C114.164 46.09 112.902 44.8955 112.006 43.3482C111.137 41.8009 110.703 39.9685 110.703 37.8511C110.703 35.7879 111.123 33.9827 111.965 32.4354C112.834 30.888 114.015 29.68 115.508 28.8113C117.028 27.9155 118.752 27.4676 120.679 27.4676C122.091 27.4676 123.353 27.6983 124.466 28.1598C125.606 28.6213 126.57 29.2864 127.357 30.1551C128.171 31.0238 128.782 32.0825 129.189 33.3312C129.624 34.5528 129.841 35.9372 129.841 37.4846C129.841 37.9732 129.664 38.3533 129.312 38.6247C128.986 38.869 128.511 38.9912 127.886 38.9912H114.815V36.0594H126.258L125.606 36.6702C125.606 35.4215 125.416 34.3763 125.036 33.5348C124.683 32.6933 124.154 32.0553 123.448 31.621C122.769 31.1595 121.914 30.9287 120.883 30.9287C119.742 30.9287 118.765 31.2002 117.951 31.7431C117.164 32.2589 116.553 33.0054 116.118 33.9827C115.711 34.9328 115.508 36.073 115.508 37.4031V37.6882C115.508 39.9142 116.023 41.5837 117.055 42.6967C118.114 43.7825 119.661 44.3255 121.697 44.3255C122.403 44.3255 123.19 44.244 124.059 44.0811C124.955 43.8911 125.796 43.5789 126.583 43.1446C127.153 42.8188 127.656 42.6831 128.09 42.7374C128.524 42.7645 128.864 42.9139 129.108 43.1853C129.379 43.4568 129.542 43.7961 129.597 44.2033C129.651 44.5834 129.569 44.977 129.352 45.3842C129.162 45.7914 128.823 46.1443 128.334 46.4429C127.384 47.0401 126.285 47.488 125.036 47.7866C123.814 48.0581 122.674 48.1938 121.616 48.1938ZM135.338 48.1124C134.659 48.1124 134.103 47.9359 133.668 47.583C133.234 47.203 132.976 46.7415 132.895 46.1986C132.84 45.6285 133.03 45.0584 133.465 44.4883L142.789 32.0689V34.3085L133.912 22.4184C133.478 21.8211 133.288 21.2511 133.342 20.7081C133.397 20.1381 133.641 19.6766 134.075 19.3237C134.51 18.9436 135.053 18.7536 135.704 18.7536C136.247 18.7536 136.722 18.8893 137.129 19.1608C137.564 19.4051 137.998 19.8259 138.432 20.4231L145.762 30.5215H144.092L151.381 20.4231C151.816 19.8259 152.236 19.4051 152.643 19.1608C153.078 18.8893 153.58 18.7536 154.15 18.7536C154.829 18.7536 155.385 18.9301 155.82 19.283C156.254 19.6359 156.498 20.0974 156.553 20.6674C156.607 21.2104 156.403 21.794 155.942 22.4184L147.065 34.3085V32.0689L156.349 44.4883C156.783 45.0584 156.973 45.6285 156.919 46.1986C156.865 46.7415 156.62 47.203 156.186 47.583C155.752 47.9359 155.182 48.1124 154.476 48.1124C153.96 48.1124 153.485 47.9766 153.051 47.7052C152.643 47.4337 152.209 46.9994 151.748 46.4022L144.011 35.8151H145.803L138.107 46.4022C137.672 46.9994 137.238 47.4337 136.804 47.7052C136.369 47.9766 135.881 48.1124 135.338 48.1124Z" fill="#009B72"/>
</svg>
