<svg width="151" height="63" viewBox="0 0 151 63" fill="none" xmlns="http://www.w3.org/2000/svg">
<ellipse cx="31.5159" cy="31.5" rx="31.5159" ry="31.5" fill="#E1EEE8"/>
<ellipse cx="31.5159" cy="31.5001" rx="23.2222" ry="23.2105" fill="#BCE2D2"/>
<path d="M41.1147 47.3979C38.1968 47.3979 35.6901 46.8143 33.5945 45.6472C31.5255 44.4535 29.9339 42.7823 28.8198 40.6337C27.7057 38.4585 27.1486 35.8987 27.1486 32.9543C27.1486 30.7526 27.4669 28.7764 28.1036 27.0257C28.7402 25.2484 29.6554 23.7364 30.8491 22.4897C32.0427 21.2164 33.5017 20.2482 35.2259 19.5851C36.9766 18.8954 38.9396 18.5505 41.1147 18.5505C42.5737 18.5505 44.0061 18.7362 45.412 19.1076C46.8179 19.4789 48.0514 20.0095 49.1124 20.6992C49.6695 21.044 50.0408 21.4684 50.2265 21.9724C50.4122 22.4499 50.452 22.9274 50.3459 23.4048C50.2398 23.8558 50.0143 24.2404 49.6695 24.5587C49.3512 24.8771 48.94 25.0627 48.436 25.1158C47.9585 25.1423 47.428 24.9699 46.8444 24.5985C46.0221 24.068 45.1335 23.6834 44.1785 23.4446C43.2236 23.2059 42.2554 23.0865 41.2739 23.0865C39.3905 23.0865 37.7989 23.4712 36.4992 24.2404C35.1994 25.0097 34.2179 26.1238 33.5547 27.5827C32.8916 29.0417 32.56 30.8322 32.56 32.9543C32.56 35.0499 32.8916 36.8404 33.5547 38.3259C34.2179 39.8114 35.1994 40.9387 36.4992 41.708C37.7989 42.4773 39.3905 42.8619 41.2739 42.8619C42.2819 42.8619 43.2766 42.7425 44.2581 42.5038C45.2396 42.2385 46.168 41.8406 47.0434 41.3101C47.6269 40.9653 48.1442 40.8194 48.5952 40.8724C49.0726 40.8989 49.4705 41.0581 49.7888 41.3499C50.1072 41.6417 50.3194 42.0131 50.4255 42.464C50.5316 42.8884 50.5051 43.3394 50.3459 43.8168C50.1867 44.2678 49.8684 44.6657 49.3909 45.0105C48.3299 45.7798 47.0566 46.3766 45.5712 46.8011C44.1122 47.1989 42.6267 47.3979 41.1147 47.3979ZM61.2756 47.3979C59.0739 47.3979 57.416 46.7745 56.3019 45.5278C55.1878 44.2545 54.6307 42.3977 54.6307 39.9573V21.1368C54.6307 20.3145 54.8429 19.6912 55.2674 19.2667C55.6918 18.8423 56.3019 18.6301 57.0977 18.6301C57.8935 18.6301 58.5036 18.8423 58.928 19.2667C59.3789 19.6912 59.6044 20.3145 59.6044 21.1368V39.7185C59.6044 40.9387 59.8564 41.8406 60.3604 42.4242C60.8909 43.0078 61.6337 43.2996 62.5886 43.2996C62.8008 43.2996 62.9998 43.2996 63.1855 43.2996C63.3711 43.2731 63.5568 43.2465 63.7425 43.22C64.1139 43.1669 64.3659 43.2731 64.4985 43.5383C64.6311 43.7771 64.6975 44.2811 64.6975 45.0503C64.6975 45.7135 64.5648 46.2307 64.2996 46.6021C64.0343 46.9735 63.5966 47.1989 62.9865 47.2785C62.7213 47.3051 62.4427 47.3316 62.1509 47.3581C61.8591 47.3846 61.5674 47.3979 61.2756 47.3979ZM69.8039 47.2785C69.0081 47.2785 68.398 47.0398 67.9736 46.5623C67.5491 46.0848 67.3369 45.4217 67.3369 44.5728V29.9701C67.3369 29.0947 67.5491 28.4316 67.9736 27.9806C68.398 27.5032 69.0081 27.2644 69.8039 27.2644C70.5997 27.2644 71.2098 27.5032 71.6342 27.9806C72.0851 28.4316 72.3106 29.0947 72.3106 29.9701V44.5728C72.3106 45.4217 72.0984 46.0848 71.674 46.5623C71.2496 47.0398 70.6262 47.2785 69.8039 47.2785ZM69.8039 23.564C68.8755 23.564 68.146 23.3385 67.6155 22.8876C67.1115 22.4101 66.8595 21.7602 66.8595 20.9379C66.8595 20.0891 67.1115 19.4392 67.6155 18.9882C68.146 18.5373 68.8755 18.3118 69.8039 18.3118C70.7588 18.3118 71.4883 18.5373 71.9923 18.9882C72.4963 19.4392 72.7483 20.0891 72.7483 20.9379C72.7483 21.7602 72.4963 22.4101 71.9923 22.8876C71.4883 23.3385 70.7588 23.564 69.8039 23.564ZM80.0251 47.3183C79.2293 47.3183 78.6192 47.1061 78.1948 46.6817C77.7704 46.2307 77.5582 45.5941 77.5582 44.7718V29.7314C77.5582 28.9091 77.7704 28.2857 78.1948 27.8613C78.6192 27.4368 79.2161 27.2246 79.9853 27.2246C80.7546 27.2246 81.3514 27.4368 81.7759 27.8613C82.2003 28.2857 82.4125 28.9091 82.4125 29.7314V32.636L81.9748 31.4423C82.5053 30.116 83.3276 29.0682 84.4417 28.2989C85.5559 27.5297 86.8822 27.1451 88.4207 27.1451C89.9857 27.1451 91.2723 27.5164 92.2803 28.2592C93.2883 29.0019 93.9912 30.1425 94.3891 31.6811H93.8321C94.3626 30.2752 95.238 29.1743 96.4582 28.3785C97.6784 27.5562 99.0843 27.1451 100.676 27.1451C102.161 27.1451 103.382 27.4368 104.336 28.0204C105.318 28.604 106.047 29.4926 106.525 30.6863C107.002 31.8535 107.241 33.3389 107.241 35.1427V44.7718C107.241 45.5941 107.016 46.2307 106.565 46.6817C106.14 47.1061 105.53 47.3183 104.734 47.3183C103.939 47.3183 103.328 47.1061 102.904 46.6817C102.48 46.2307 102.267 45.5941 102.267 44.7718V35.3417C102.267 33.8562 102.015 32.7686 101.511 32.0789C101.034 31.3893 100.212 31.0444 99.0445 31.0444C97.7447 31.0444 96.7234 31.5086 95.9807 32.4371C95.238 33.3389 94.8666 34.5989 94.8666 36.2171V44.7718C94.8666 45.5941 94.6544 46.2307 94.23 46.6817C93.8055 47.1061 93.1954 47.3183 92.3996 47.3183C91.6039 47.3183 90.9805 47.1061 90.5295 46.6817C90.1051 46.2307 89.8929 45.5941 89.8929 44.7718V35.3417C89.8929 33.8562 89.6409 32.7686 89.1369 32.0789C88.6594 31.3893 87.8504 31.0444 86.7097 31.0444C85.41 31.0444 84.3887 31.5086 83.646 32.4371C82.9032 33.3389 82.5319 34.5989 82.5319 36.2171V44.7718C82.5319 46.4695 81.6963 47.3183 80.0251 47.3183ZM118.778 47.3979C117.372 47.3979 116.112 47.1326 114.998 46.6021C113.911 46.0451 113.049 45.3023 112.412 44.3739C111.802 43.4455 111.497 42.3977 111.497 41.2305C111.497 39.7981 111.868 38.6707 112.611 37.8484C113.354 36.9996 114.561 36.3895 116.232 36.0181C117.903 35.6467 120.144 35.4611 122.956 35.4611H124.946V38.3259H122.996C121.351 38.3259 120.038 38.4055 119.057 38.5646C118.075 38.7238 117.372 39.0023 116.948 39.4002C116.55 39.7716 116.351 40.3021 116.351 40.9918C116.351 41.8672 116.656 42.5834 117.266 43.1404C117.876 43.6975 118.725 43.976 119.813 43.976C120.688 43.976 121.457 43.7771 122.121 43.3792C122.81 42.9547 123.354 42.3844 123.752 41.6682C124.15 40.952 124.349 40.1297 124.349 39.2013V34.6255C124.349 33.2992 124.057 32.3442 123.473 31.7606C122.89 31.1771 121.908 30.8853 120.529 30.8853C119.76 30.8853 118.924 30.9781 118.022 31.1638C117.147 31.3495 116.218 31.6678 115.237 32.1187C114.733 32.3575 114.282 32.4238 113.884 32.3177C113.513 32.2116 113.221 31.9994 113.009 31.6811C112.797 31.3362 112.69 30.9648 112.69 30.5669C112.69 30.1691 112.797 29.7844 113.009 29.4131C113.221 29.0152 113.579 28.7234 114.083 28.5377C115.303 28.0337 116.47 27.6756 117.585 27.4634C118.725 27.2512 119.76 27.1451 120.688 27.1451C122.598 27.1451 124.163 27.4368 125.383 28.0204C126.63 28.604 127.558 29.4926 128.169 30.6863C128.779 31.8535 129.084 33.3655 129.084 35.2223V44.7718C129.084 45.5941 128.885 46.2307 128.487 46.6817C128.089 47.1061 127.519 47.3183 126.776 47.3183C126.033 47.3183 125.45 47.1061 125.025 46.6817C124.627 46.2307 124.428 45.5941 124.428 44.7718V42.8619H124.747C124.561 43.7903 124.19 44.5994 123.633 45.2891C123.102 45.9522 122.426 46.4695 121.603 46.8408C120.781 47.2122 119.839 47.3979 118.778 47.3979ZM143.045 47.3979C141.321 47.3979 139.875 47.1061 138.708 46.5225C137.567 45.9389 136.718 45.0901 136.161 43.976C135.604 42.8354 135.326 41.4295 135.326 39.7583V31.2832H133.257C132.62 31.2832 132.129 31.124 131.784 30.8057C131.44 30.4608 131.267 29.9966 131.267 29.4131C131.267 28.8029 131.44 28.3387 131.784 28.0204C132.129 27.7021 132.62 27.5429 133.257 27.5429H135.326V23.9221C135.326 23.0998 135.538 22.4764 135.962 22.052C136.413 21.6276 137.037 21.4154 137.832 21.4154C138.628 21.4154 139.238 21.6276 139.663 22.052C140.087 22.4764 140.299 23.0998 140.299 23.9221V27.5429H144.517C145.154 27.5429 145.644 27.7021 145.989 28.0204C146.334 28.3387 146.506 28.8029 146.506 29.4131C146.506 29.9966 146.334 30.4608 145.989 30.8057C145.644 31.124 145.154 31.2832 144.517 31.2832H140.299V39.4798C140.299 40.7531 140.578 41.708 141.135 42.3446C141.692 42.9813 142.594 43.2996 143.841 43.2996C144.292 43.2996 144.689 43.2598 145.034 43.1802C145.379 43.1006 145.684 43.0476 145.949 43.0211C146.268 42.9945 146.533 43.1006 146.745 43.3394C146.957 43.5516 147.064 44.0025 147.064 44.6922C147.064 45.2227 146.971 45.7002 146.785 46.1246C146.626 46.5225 146.321 46.8011 145.87 46.9602C145.525 47.0663 145.074 47.1592 144.517 47.2387C143.96 47.3448 143.469 47.3979 143.045 47.3979Z" fill="#009B72"/>
</svg>
