<svg width="86" height="38" viewBox="0 0 86 38" fill="none" xmlns="http://www.w3.org/2000/svg">
<ellipse cx="19.1111" cy="19" rx="19.1111" ry="19" fill="#E1EEE8"/>
<ellipse cx="19.1092" cy="19" rx="14.0819" ry="14" fill="#BCE2D2"/>
<path d="M23.4529 27.9752C21.8014 27.9752 20.3826 27.6449 19.1965 26.9843C18.0254 26.3087 17.1246 25.3628 16.494 24.1467C15.8634 22.9156 15.5481 21.4668 15.5481 19.8002C15.5481 18.5541 15.7283 17.4356 16.0886 16.4447C16.449 15.4387 16.9669 14.583 17.6426 13.8773C18.3182 13.1567 19.1439 12.6087 20.1198 12.2333C21.1107 11.843 22.2217 11.6478 23.4529 11.6478C24.2786 11.6478 25.0894 11.7529 25.8851 11.9631C26.6808 12.1733 27.379 12.4735 27.9795 12.8639C28.2948 13.0591 28.505 13.2993 28.6101 13.5845C28.7152 13.8548 28.7377 14.125 28.6776 14.3953C28.6176 14.6505 28.49 14.8682 28.2948 15.0484C28.1146 15.2286 27.8819 15.3336 27.5967 15.3637C27.3264 15.3787 27.0261 15.2811 26.6958 15.0709C26.2304 14.7706 25.7274 14.5529 25.187 14.4178C24.6465 14.2827 24.0985 14.2151 23.543 14.2151C22.477 14.2151 21.5762 14.4328 20.8405 14.8682C20.1048 15.3036 19.5493 15.9342 19.174 16.76C18.7986 17.5857 18.6109 18.5991 18.6109 19.8002C18.6109 20.9863 18.7986 21.9997 19.174 22.8405C19.5493 23.6813 20.1048 24.3194 20.8405 24.7548C21.5762 25.1902 22.477 25.4079 23.543 25.4079C24.1135 25.4079 24.6765 25.3403 25.232 25.2052C25.7875 25.055 26.313 24.8298 26.8084 24.5296C27.1387 24.3344 27.4315 24.2518 27.6867 24.2818C27.957 24.2968 28.1822 24.3869 28.3624 24.5521C28.5425 24.7172 28.6626 24.9274 28.7227 25.1827C28.7827 25.4229 28.7677 25.6781 28.6776 25.9484C28.5876 26.2036 28.4074 26.4288 28.1372 26.624C27.5366 27.0594 26.8159 27.3972 25.9752 27.6374C25.1494 27.8626 24.3087 27.9752 23.4529 27.9752ZM34.8638 27.9752C33.6176 27.9752 32.6793 27.6224 32.0487 26.9167C31.4181 26.1961 31.1028 25.1451 31.1028 23.7639V13.1116C31.1028 12.6462 31.2229 12.2934 31.4632 12.0531C31.7034 11.8129 32.0487 11.6928 32.4991 11.6928C32.9495 11.6928 33.2948 11.8129 33.5351 12.0531C33.7903 12.2934 33.9179 12.6462 33.9179 13.1116V23.6287C33.9179 24.3194 34.0605 24.8298 34.3458 25.1601C34.6461 25.4904 35.0665 25.6556 35.607 25.6556C35.7271 25.6556 35.8397 25.6556 35.9448 25.6556C36.0499 25.6406 36.155 25.6256 36.26 25.6105C36.4702 25.5805 36.6129 25.6406 36.6879 25.7907C36.763 25.9258 36.8005 26.2111 36.8005 26.6465C36.8005 27.0218 36.7255 27.3146 36.5753 27.5248C36.4252 27.735 36.1775 27.8626 35.8322 27.9076C35.682 27.9227 35.5244 27.9377 35.3592 27.9527C35.1941 27.9677 35.0289 27.9752 34.8638 27.9752ZM39.6907 27.9076C39.2403 27.9076 38.895 27.7725 38.6548 27.5023C38.4146 27.232 38.2945 26.8567 38.2945 26.3762V18.1112C38.2945 17.6157 38.4146 17.2404 38.6548 16.9852C38.895 16.7149 39.2403 16.5798 39.6907 16.5798C40.1412 16.5798 40.4865 16.7149 40.7267 16.9852C40.9819 17.2404 41.1095 17.6157 41.1095 18.1112V26.3762C41.1095 26.8567 40.9894 27.232 40.7492 27.5023C40.509 27.7725 40.1562 27.9076 39.6907 27.9076ZM39.6907 14.4854C39.1653 14.4854 38.7524 14.3578 38.4521 14.1025C38.1668 13.8323 38.0242 13.4644 38.0242 12.999C38.0242 12.5186 38.1668 12.1507 38.4521 11.8955C38.7524 11.6403 39.1653 11.5127 39.6907 11.5127C40.2312 11.5127 40.6441 11.6403 40.9294 11.8955C41.2146 12.1507 41.3573 12.5186 41.3573 12.999C41.3573 13.4644 41.2146 13.8323 40.9294 14.1025C40.6441 14.3578 40.2312 14.4854 39.6907 14.4854ZM45.4759 27.9302C45.0255 27.9302 44.6802 27.8101 44.4399 27.5698C44.1997 27.3146 44.0796 26.9543 44.0796 26.4888V17.9761C44.0796 17.5106 44.1997 17.1578 44.4399 16.9176C44.6802 16.6774 45.018 16.5573 45.4534 16.5573C45.8888 16.5573 46.2266 16.6774 46.4668 16.9176C46.707 17.1578 46.8271 17.5106 46.8271 17.9761V19.6201L46.5794 18.9444C46.8797 18.1938 47.3451 17.6007 47.9757 17.1653C48.6063 16.7299 49.3569 16.5122 50.2277 16.5122C51.1136 16.5122 51.8417 16.7224 52.4122 17.1428C52.9828 17.5632 53.3806 18.2088 53.6058 19.0796H53.2905C53.5908 18.2838 54.0863 17.6608 54.7769 17.2104C55.4675 16.7449 56.2633 16.5122 57.1641 16.5122C58.0049 16.5122 58.6955 16.6774 59.236 17.0077C59.7915 17.338 60.2044 17.8409 60.4746 18.5166C60.7449 19.1772 60.88 20.0179 60.88 21.0389V26.4888C60.88 26.9543 60.7524 27.3146 60.4971 27.5698C60.2569 27.8101 59.9116 27.9302 59.4612 27.9302C59.0108 27.9302 58.6655 27.8101 58.4252 27.5698C58.185 27.3146 58.0649 26.9543 58.0649 26.4888V21.1515C58.0649 20.3107 57.9223 19.6951 57.637 19.3048C57.3668 18.9144 56.9013 18.7192 56.2407 18.7192C55.5051 18.7192 54.927 18.982 54.5067 19.5075C54.0863 20.0179 53.8761 20.7311 53.8761 21.6469V26.4888C53.8761 26.9543 53.756 27.3146 53.5157 27.5698C53.2755 27.8101 52.9302 27.9302 52.4798 27.9302C52.0294 27.9302 51.6766 27.8101 51.4213 27.5698C51.1811 27.3146 51.061 26.9543 51.061 26.4888V21.1515C51.061 20.3107 50.9184 19.6951 50.6331 19.3048C50.3629 18.9144 49.9049 18.7192 49.2594 18.7192C48.5237 18.7192 47.9457 18.982 47.5253 19.5075C47.1049 20.0179 46.8947 20.7311 46.8947 21.6469V26.4888C46.8947 27.4497 46.4218 27.9302 45.4759 27.9302ZM67.4099 27.9752C66.6142 27.9752 65.901 27.8251 65.2704 27.5248C64.6549 27.2095 64.1669 26.7891 63.8066 26.2636C63.4613 25.7382 63.2886 25.1451 63.2886 24.4845C63.2886 23.6738 63.4988 23.0357 63.9192 22.5703C64.3396 22.0898 65.0227 21.7445 65.9686 21.5343C66.9144 21.3241 68.1831 21.219 69.7746 21.219H70.9006V22.8405H69.7971C68.8662 22.8405 68.123 22.8856 67.5675 22.9756C67.012 23.0657 66.6142 23.2234 66.3739 23.4486C66.1487 23.6588 66.0361 23.959 66.0361 24.3494C66.0361 24.8448 66.2088 25.2502 66.5541 25.5655C66.8994 25.8808 67.3799 26.0384 67.9954 26.0384C68.4909 26.0384 68.9263 25.9258 69.3016 25.7006C69.692 25.4604 69.9998 25.1376 70.225 24.7322C70.4502 24.3269 70.5628 23.8614 70.5628 23.336V20.7461C70.5628 19.9954 70.3976 19.4549 70.0673 19.1246C69.737 18.7943 69.1815 18.6292 68.4008 18.6292C67.9654 18.6292 67.4925 18.6817 66.982 18.7868C66.4865 18.8919 65.9611 19.0721 65.4056 19.3273C65.1203 19.4624 64.8651 19.5 64.6399 19.4399C64.4297 19.3798 64.2645 19.2597 64.1444 19.0796C64.0243 18.8844 63.9642 18.6742 63.9642 18.449C63.9642 18.2238 64.0243 18.0061 64.1444 17.7959C64.2645 17.5707 64.4672 17.4055 64.7525 17.3004C65.4431 17.0152 66.1037 16.8125 66.7343 16.6924C67.3799 16.5723 67.9654 16.5122 68.4909 16.5122C69.5719 16.5122 70.4577 16.6774 71.1483 17.0077C71.854 17.338 72.3794 17.8409 72.7248 18.5166C73.0701 19.1772 73.2427 20.0329 73.2427 21.0839V26.4888C73.2427 26.9543 73.1301 27.3146 72.9049 27.5698C72.6797 27.8101 72.3569 27.9302 71.9365 27.9302C71.5161 27.9302 71.1858 27.8101 70.9456 27.5698C70.7204 27.3146 70.6078 26.9543 70.6078 26.4888V25.4079H70.788C70.6829 25.9333 70.4727 26.3913 70.1574 26.7816C69.8571 27.157 69.4743 27.4497 69.0089 27.6599C68.5434 27.8701 68.0104 27.9752 67.4099 27.9752ZM81.1446 27.9752C80.1687 27.9752 79.3505 27.8101 78.6899 27.4798C78.0443 27.1495 77.5639 26.669 77.2486 26.0384C76.9333 25.3928 76.7756 24.5971 76.7756 23.6513V18.8544H75.6046C75.2442 18.8544 74.9665 18.7643 74.7713 18.5841C74.5761 18.3889 74.4785 18.1262 74.4785 17.7959C74.4785 17.4506 74.5761 17.1878 74.7713 17.0077C74.9665 16.8275 75.2442 16.7374 75.6046 16.7374H76.7756V14.6881C76.7756 14.2226 76.8958 13.8698 77.136 13.6296C77.3912 13.3894 77.744 13.2693 78.1944 13.2693C78.6449 13.2693 78.9902 13.3894 79.2304 13.6296C79.4706 13.8698 79.5907 14.2226 79.5907 14.6881V16.7374H81.9779C82.3382 16.7374 82.616 16.8275 82.8112 17.0077C83.0063 17.1878 83.1039 17.4506 83.1039 17.7959C83.1039 18.1262 83.0063 18.3889 82.8112 18.5841C82.616 18.7643 82.3382 18.8544 81.9779 18.8544H79.5907V23.4936C79.5907 24.2143 79.7484 24.7548 80.0637 25.1151C80.3789 25.4754 80.8894 25.6556 81.5951 25.6556C81.8503 25.6556 82.0755 25.6331 82.2707 25.588C82.4658 25.543 82.6385 25.513 82.7886 25.4979C82.9688 25.4829 83.1189 25.543 83.2391 25.6781C83.3592 25.7982 83.4192 26.0534 83.4192 26.4438C83.4192 26.7441 83.3667 27.0143 83.2616 27.2545C83.1715 27.4798 82.9988 27.6374 82.7436 27.7275C82.5484 27.7875 82.2932 27.8401 81.9779 27.8851C81.6626 27.9452 81.3849 27.9752 81.1446 27.9752Z" fill="#009B72"/>
</svg>
