<svg width="27" height="31" viewBox="0 0 27 31" fill="none" xmlns="http://www.w3.org/2000/svg">
<rect y="7" width="24" height="24" rx="8" fill="#F3BA4D" fill-opacity="0.24"/>
<path d="M15 9C16.65 9 18 10.35 18 12C18 13.65 16.65 15 15 15C13.35 15 12 13.65 12 12C12 10.35 13.35 9 15 9ZM15 7C12.24 7 10 9.24 10 12C10 14.76 12.24 17 15 17C17.76 17 20 14.76 20 12C20 9.24 17.76 7 15 7ZM5 13H7C7.55 13 8 12.55 8 12C8 11.45 7.55 11 7 11H5C4.45 11 4 11.45 4 12C4 12.55 4.45 13 5 13ZM23 13H25C25.55 13 26 12.55 26 12C26 11.45 25.55 11 25 11H23C22.45 11 22 11.45 22 12C22 12.55 22.45 13 23 13ZM14 2V4C14 4.55 14.45 5 15 5C15.55 5 16 4.55 16 4V2C16 1.45 15.55 1 15 1C14.45 1 14 1.45 14 2ZM14 20V22C14 22.55 14.45 23 15 23C15.55 23 16 22.55 16 22V20C16 19.45 15.55 19 15 19C14.45 19 14 19.45 14 20ZM8.99 4.58C8.6 4.19 7.96 4.19 7.58 4.58C7.19 4.97 7.19 5.61 7.58 5.99L8.64 7.05C9.03 7.44 9.67 7.44 10.05 7.05C10.43 6.66 10.44 6.02 10.05 5.64L8.99 4.58ZM21.36 16.95C20.97 16.56 20.33 16.56 19.95 16.95C19.56 17.34 19.56 17.98 19.95 18.36L21.01 19.42C21.4 19.81 22.04 19.81 22.42 19.42C22.81 19.03 22.81 18.39 22.42 18.01L21.36 16.95ZM22.42 5.99C22.81 5.6 22.81 4.96 22.42 4.58C22.03 4.19 21.39 4.19 21.01 4.58L19.95 5.64C19.56 6.03 19.56 6.67 19.95 7.05C20.34 7.43 20.98 7.44 21.36 7.05L22.42 5.99ZM10.05 18.36C10.44 17.97 10.44 17.33 10.05 16.95C9.66 16.56 9.02 16.56 8.64 16.95L7.58 18.01C7.19 18.4 7.19 19.04 7.58 19.42C7.97 19.8 8.61 19.81 8.99 19.42L10.05 18.36Z" fill="#F3BA4D"/>
</svg>
