<svg width="117" height="94" viewBox="0 0 117 94" fill="none" xmlns="http://www.w3.org/2000/svg">
<path d="M56 80C78.0914 80 96 62.0914 96 40C96 17.9086 78.0914 0 56 0C33.9086 0 16 17.9086 16 40C16 62.0914 33.9086 80 56 80Z" fill="#0EAE71"/>
<path d="M71.4584 23.4151C63.1063 31.8836 54.7543 40.3522 46.4047 48.8344C46.9483 48.5832 47.4895 48.3184 48.0331 48.0673C47.5036 48.1618 46.9605 48.2588 46.4309 48.3533C47.5079 48.7355 48.5874 49.1313 49.6644 49.5134C45.8486 46.0333 42.0192 42.5556 38.2058 39.0891C36.833 37.835 34.8889 37.3834 33.3438 38.696C32.0684 39.7924 31.562 42.2927 32.9508 43.558C36.5993 46.8859 40.2614 50.2113 43.9099 53.5391C45.065 54.5939 46.0532 55.3422 47.7132 55.144C48.139 55.096 48.5847 55.0024 48.9896 54.9161C51.2674 54.4114 52.9046 52.0455 54.4803 50.4331C61.6219 43.1895 68.7746 35.9298 75.9162 28.6861C77.2207 27.3603 77.5875 25.3333 76.3092 23.8241C75.1847 22.4696 72.7741 22.0733 71.4584 23.4151Z" fill="white"/>
<path d="M100.916 84C101.065 82.3072 102.214 75.0236 111 74.5079C111 74.5079 101.153 74.1346 100.906 65C100.906 66.5251 100.381 72.6253 92 74.5807C92 74.5807 100.089 75.242 100.906 83.8956C100.91 83.9272 100.913 83.962 100.916 84Z" fill="#F3BA4D"/>
<path d="M8.91597 19C9.06522 17.3072 10.2138 10.0236 19 9.50791C19 9.50791 9.15285 9.13455 8.90627 0C8.90627 1.52506 8.38063 7.62531 0 9.58068C0 9.58068 8.08864 10.242 8.90627 18.8956C8.90951 18.9272 8.91272 18.962 8.91597 19Z" fill="#F3BA4D"/>
<path d="M106.916 29C107.065 27.3072 108.214 20.0236 117 19.5079C117 19.5079 107.153 19.1346 106.906 10C106.906 11.5251 106.381 17.6253 98 19.5807C98 19.5807 106.089 20.242 106.906 28.8956C106.91 28.9272 106.913 28.962 106.916 29Z" fill="#F3BA4D"/>
<path d="M22.916 94C23.0652 92.3072 24.2138 85.0236 33 84.5079C33 84.5079 23.1528 84.1346 22.9063 75C22.9063 76.5251 22.3806 82.6253 14 84.5807C14 84.5807 22.0886 85.242 22.9063 93.8956C22.9095 93.9272 22.9127 93.962 22.916 94Z" fill="#F3BA4D"/>
</svg>
