<svg width="84" height="84" viewBox="0 0 84 84" fill="none" xmlns="http://www.w3.org/2000/svg">
<path d="M42 84C65.1959 84 84 65.196 84 42C84 18.804 65.1959 0 42 0C18.804 0 0 18.804 0 42C0 65.196 18.804 84 42 84Z" fill="#DD3730"/>
<path d="M46.0072 24.9141L45.1216 47.3953H38.7009L37.8153 24.9141H46.0072ZM42.022 59.4103C40.6936 59.4103 39.6013 59.0036 38.7452 58.19C37.9187 57.3452 37.5054 56.3127 37.5054 55.0924C37.5054 53.8409 37.9187 52.7927 38.7452 51.9479C39.6013 51.1031 40.6936 50.6806 42.022 50.6806C43.3209 50.6806 44.3836 51.1031 45.2102 51.9479C46.0662 52.7927 46.4943 53.8409 46.4943 55.0924C46.4943 56.3127 46.0662 57.3452 45.2102 58.19C44.3836 59.0036 43.3209 59.4103 42.022 59.4103Z" fill="white"/>
</svg>
