<svg width="750" height="900" viewBox="0 0 750 900" fill="none" xmlns="http://www.w3.org/2000/svg">
<path d="M749.66 0H0V899H749.66V0Z" fill="#1F4B45"/>
<path d="M556.65 449.2C575.7 449.2 591.15 433.98 591.15 415.2C591.15 396.42 575.7 381.2 556.65 381.2C537.6 381.2 522.15 396.42 522.15 415.2C522.15 433.98 537.6 449.2 556.65 449.2Z" stroke="#BDE2D2" stroke-width="2" stroke-miterlimit="10"/>
<path d="M570.29 401.1L548.99 422.68L550.38 422.02L549.02 422.27L551.76 423.27L542.02 414.41C541.506 413.834 540.79 413.479 540.021 413.418C539.252 413.356 538.489 413.593 537.89 414.08C536.81 415.01 536.38 417.14 537.56 418.21L546.87 426.7C547.262 427.169 547.761 427.538 548.324 427.775C548.888 428.011 549.501 428.109 550.11 428.06C550.47 428.06 550.85 427.94 551.19 427.87C553.13 427.44 554.52 425.43 555.86 424.06L574.08 405.57C574.656 405.056 575.011 404.34 575.072 403.571C575.134 402.802 574.897 402.039 574.41 401.44C574.163 401.146 573.86 400.903 573.518 400.727C573.177 400.55 572.804 400.443 572.421 400.411C572.038 400.38 571.652 400.424 571.287 400.542C570.921 400.661 570.582 400.85 570.29 401.1Z" fill="#BDE2D2"/>
<path d="M61.1501 898.95C61.1501 774.16 201.59 673 374.83 673C548.07 673 688.51 774.16 688.51 898.95" fill="url(#paint0_radial_264_2683)"/>
<path d="M152.98 851.3V777.46" stroke="#BDE2D2" stroke-width="2" stroke-miterlimit="10"/>
<path d="M157.44 727H148.52C146.241 726.997 143.985 727.444 141.879 728.313C139.773 729.183 137.859 730.458 136.246 732.068C134.633 733.677 133.353 735.588 132.478 737.692C131.604 739.796 131.153 742.052 131.15 744.33V803.44C131.153 805.718 131.604 807.974 132.478 810.078C133.353 812.182 134.633 814.093 136.246 815.702C137.859 817.312 139.773 818.587 141.879 819.457C143.985 820.326 146.241 820.773 148.52 820.77H157.44C159.718 820.773 161.975 820.326 164.081 819.457C166.187 818.587 168.101 817.312 169.714 815.702C171.327 814.093 172.607 812.182 173.482 810.078C174.356 807.974 174.807 805.718 174.81 803.44V744.33C174.807 742.052 174.356 739.796 173.482 737.692C172.607 735.588 171.327 733.677 169.714 732.068C168.101 730.458 166.187 729.183 164.081 728.313C161.975 727.444 159.718 726.997 157.44 727Z" stroke="#BDE2D2" stroke-width="2" stroke-miterlimit="10"/>
<path d="M674.74 842.3V785.68" stroke="#BDE2D2" stroke-width="2" stroke-miterlimit="10"/>
<path d="M678.16 747H671.32C669.573 746.997 667.842 747.339 666.227 748.006C664.611 748.672 663.143 749.651 661.906 750.885C660.669 752.119 659.687 753.585 659.017 755.199C658.347 756.813 658.001 758.543 658 760.29V805.6C658.001 807.347 658.347 809.077 659.017 810.691C659.687 812.305 660.669 813.771 661.906 815.005C663.143 816.239 664.611 817.218 666.227 817.884C667.842 818.551 669.573 818.893 671.32 818.89H678.16C679.907 818.891 681.636 818.549 683.25 817.881C684.865 817.214 686.332 816.236 687.568 815.002C688.803 813.768 689.784 812.302 690.454 810.689C691.123 809.076 691.469 807.347 691.47 805.6V760.29C691.469 758.543 691.123 756.814 690.454 755.201C689.784 753.588 688.803 752.123 687.568 750.888C686.332 749.654 684.865 748.676 683.25 748.009C681.636 747.341 679.907 746.999 678.16 747Z" stroke="#BDE2D2" stroke-width="2" stroke-miterlimit="10"/>
<path d="M569.51 899.3V846.839" stroke="#BDE2D2" stroke-width="2" stroke-miterlimit="10"/>
<path d="M572.679 811H566.342C564.722 810.998 563.119 811.314 561.622 811.932C560.126 812.549 558.765 813.456 557.619 814.6C556.473 815.743 555.563 817.101 554.942 818.597C554.321 820.092 554.001 821.695 554 823.314V865.296C554.001 866.915 554.321 868.518 554.942 870.013C555.563 871.508 556.473 872.866 557.619 874.01C558.765 875.154 560.126 876.06 561.622 876.678C563.119 877.295 564.722 877.612 566.342 877.61H572.679C574.297 877.611 575.9 877.293 577.396 876.675C578.891 876.057 580.25 875.15 581.396 874.007C582.541 872.863 583.45 871.505 584.07 870.011C584.69 868.516 585.01 866.914 585.012 865.296V823.314C585.01 821.696 584.69 820.093 584.07 818.599C583.45 817.104 582.541 815.746 581.396 814.603C580.25 813.459 578.891 812.553 577.396 811.934C575.9 811.316 574.297 810.999 572.679 811V811Z" stroke="#BDE2D2" stroke-width="2" stroke-miterlimit="10"/>
<path d="M44.5104 899.3V846.839" stroke="#BDE2D2" stroke-width="2" stroke-miterlimit="10"/>
<path d="M47.6792 811H41.3416C39.7225 810.998 38.1188 811.314 36.6222 811.932C35.1255 812.549 33.7653 813.456 32.6192 814.6C31.473 815.743 30.5634 817.101 29.9424 818.597C29.3214 820.092 29.0012 821.695 29 823.314V865.296C29.0012 866.915 29.3214 868.518 29.9424 870.013C30.5634 871.508 31.473 872.866 32.6192 874.01C33.7653 875.154 35.1255 876.06 36.6222 876.678C38.1188 877.295 39.7225 877.612 41.3416 877.61H47.6792C49.2975 877.611 50.9002 877.293 52.3957 876.675C53.8913 876.057 55.2505 875.15 56.3956 874.007C57.5408 872.863 58.4495 871.505 59.0699 870.011C59.6904 868.516 60.0103 866.914 60.0115 865.296V823.314C60.0103 821.696 59.6904 820.093 59.0699 818.599C58.4495 817.104 57.5408 815.746 56.3956 814.603C55.2505 813.459 53.8913 812.553 52.3957 811.934C50.9002 811.316 49.2975 810.999 47.6792 811V811Z" stroke="#BDE2D2" stroke-width="2" stroke-miterlimit="10"/>
<path d="M494.15 671.46H256.54V676.68H494.15V671.46Z" fill="#F16061"/>
<path d="M365.7 506.6V515.78C365.7 515.78 322.88 517.89 304.06 563.06C285.24 608.23 291.59 628.68 291.59 628.68C291.59 628.68 293.24 635.74 320.06 633.38H457.45C457.45 633.38 467.8 631.5 464.74 611.03C461.92 590.57 451.8 560.03 451.8 560.03C451.8 560.03 436.28 518.39 390.64 514.86V506.63C390.87 506.6 377.23 518.36 365.7 506.6Z" fill="#214C46" stroke="#BDE2D2" stroke-width="2" stroke-miterlimit="10"/>
<path d="M427.34 554.59H328.34C326.53 554.592 324.796 555.313 323.517 556.594C322.238 557.874 321.52 559.61 321.52 561.42V626.35C321.523 628.158 322.242 629.891 323.52 631.169C324.799 632.448 326.532 633.167 328.34 633.17H427.62C429.429 633.17 431.163 632.451 432.442 631.172C433.721 629.893 434.44 628.159 434.44 626.35V561.42C434.348 559.591 433.563 557.867 432.244 556.598C430.924 555.329 429.171 554.61 427.34 554.59Z" fill="#214C46" stroke="#BDE2D2" stroke-width="2" stroke-miterlimit="10"/>
<path d="M304.81 633.68C304.81 633.68 277.71 651.75 283.81 693.68C289.91 735.61 315.57 815.07 315.57 815.07C315.57 815.07 334.39 822.37 350.39 815.07C350.39 815.07 341.21 770.84 338.62 750.14C336.04 729.2 336.04 678.39 336.04 678.39C336.04 678.39 367.8 671.8 377.68 671.8C377.68 671.8 415.55 673.92 419.79 678.39C419.79 678.39 421.9 732.03 417.67 748.26L406.38 815.07C406.38 815.07 423.79 824.25 440.02 815.07C440.02 815.07 469.66 740.07 473.19 690.62C476.72 641.17 447.81 633.68 447.81 633.68H304.81Z" fill="#214C46" stroke="#BDE2D2" stroke-width="2" stroke-miterlimit="10"/>
<path d="M320.29 816.44C320.29 816.44 312.06 839.02 327.59 854.31C342.88 869.6 358.41 854.31 358.41 854.31C358.41 854.31 362.64 833.84 347.58 819.02L345.47 816.91C345.23 816.91 331.81 820.9 320.29 816.44Z" fill="#214C46" stroke="#BDE2D2" stroke-width="2" stroke-miterlimit="10"/>
<path d="M409.93 816.44C409.93 816.44 397.22 835.96 397.22 845.61C397.22 855.26 409.93 859.02 409.93 859.02C409.93 859.02 432.75 861.6 436.28 843.25C439.81 824.9 437.22 816.44 437.22 816.44C437.22 816.44 431.1 821.38 409.93 816.44Z" fill="#214C46" stroke="#BDE2D2" stroke-width="2" stroke-miterlimit="10"/>
<path d="M393.93 490.84C396.75 490.84 398.87 488.01 398.87 484.72C398.87 481.43 396.75 478.6 393.93 478.6C391.11 478.6 388.99 481.43 388.99 484.72C388.99 488.25 391.11 490.84 393.93 490.84Z" fill="#214C46" stroke="#BDE2D2" stroke-width="2" stroke-miterlimit="10"/>
<path d="M362.17 489.68C364.99 489.68 367.11 486.86 367.11 483.57C367.11 480.28 364.99 477.45 362.17 477.45C359.35 477.45 357.23 480.27 357.23 483.57C357.23 487.07 359.35 489.68 362.17 489.68Z" fill="#214C46" stroke="#BDE2D2" stroke-width="2" stroke-miterlimit="10"/>
<path d="M378.64 512.01H376.81C373.004 512.007 369.353 510.499 366.655 507.814C363.957 505.129 362.431 501.486 362.41 497.68V465.19C362.428 464.323 362.78 463.496 363.393 462.883C364.006 462.27 364.833 461.918 365.7 461.9H389.7C390.567 461.918 391.393 462.27 392.006 462.883C392.62 463.496 392.972 464.323 392.99 465.19V497.68C392.969 501.477 391.45 505.113 388.762 507.797C386.075 510.48 382.437 511.994 378.64 512.01Z" fill="#214C46" stroke="#BDE2D2" stroke-width="2" stroke-miterlimit="10"/>
<path d="M365.46 464.49C365.46 464.49 365.23 478.6 360.76 478.6C356.29 478.6 356.52 460.73 356.52 460.73L360.05 457.2C360.99 456.26 363.58 449.43 363.58 449.43C363.58 449.43 367.11 441.67 379.58 441.67C392.05 441.67 398.4 448.96 401.69 448.96C405.22 448.96 398.87 457.2 398.87 457.2C398.87 457.2 399.81 475.78 396.75 478.6C396.75 478.6 394.4 476.25 392.52 482.6C392.52 482.6 386.17 472.49 388.99 464.25C388.99 464.25 393.93 460.96 384.05 464.25C378.186 466.215 371.795 465.879 366.17 463.31C366.17 463.31 362.88 462.14 365.46 464.49Z" fill="#214C46" stroke="#BDE2D2" stroke-width="2" stroke-miterlimit="10"/>
<path d="M166.96 410.78C160.426 413.937 154.097 417.501 148.01 421.45C145.78 422.94 148.12 426.28 150.26 424.85C156.22 420.996 162.415 417.519 168.81 414.44C171.11 413.3 169.35 409.61 166.96 410.78Z" fill="#F3BB4D"/>
<path d="M134.17 432.17C128.729 437.107 123.925 442.704 119.87 448.83C118.47 451.17 122 453.24 123.29 451.06C127.156 445.218 131.738 439.883 136.93 435.18C138.81 433.47 136.18 430.35 134.17 432.17Z" fill="#F3BB4D"/>
<path d="M112.03 464.68C109.558 471.602 107.976 478.809 107.32 486.13C107.1 488.83 111.18 489.04 111.39 486.5C112.004 479.53 113.51 472.667 115.87 466.08C116.81 463.68 113.03 462.09 112.03 464.68Z" fill="#F3BB4D"/>
<path d="M107.68 506.15C108.605 513.419 110.325 520.566 112.81 527.46C113.81 529.98 117.58 528.46 116.65 526.07C114.273 519.463 112.629 512.616 111.75 505.65C111.44 503.12 107.37 503.46 107.68 506.15Z" fill="#F3BB4D"/>
<path d="M120.28 543.34C124.039 549.616 128.432 555.491 133.39 560.87C135.22 562.87 138.14 559.99 136.39 558.11C131.629 552.94 127.414 547.294 123.81 541.26C122.56 539.04 118.97 540.97 120.28 543.34Z" fill="#F3BB4D"/>
<path d="M146.18 572.81C147.63 573.91 149.03 575.08 150.52 576.14L154.99 579.27L159.61 582.19C161.16 583.19 162.77 584 164.35 584.91C164.579 585.05 164.835 585.139 165.102 585.173C165.368 585.206 165.638 585.182 165.895 585.102C166.151 585.023 166.388 584.89 166.588 584.712C166.789 584.534 166.95 584.315 167.06 584.07C167.192 583.842 167.278 583.59 167.312 583.328C167.347 583.066 167.329 582.801 167.26 582.546C167.191 582.291 167.073 582.053 166.911 581.844C166.75 581.635 166.549 581.461 166.32 581.33C164.79 580.45 163.23 579.62 161.73 578.7L157.25 575.87L152.93 572.87C151.49 571.87 150.14 570.72 148.74 569.65C148.532 569.487 148.293 569.367 148.038 569.297C147.783 569.227 147.517 569.208 147.255 569.242C146.992 569.275 146.739 569.36 146.51 569.492C146.281 569.624 146.081 569.8 145.92 570.01C145.74 570.205 145.603 570.435 145.518 570.686C145.432 570.938 145.401 571.204 145.426 571.468C145.45 571.732 145.53 571.988 145.66 572.219C145.79 572.45 145.967 572.652 146.18 572.81Z" fill="#F3BB4D"/>
<path d="M182.49 593.24C189.33 595.763 196.35 597.769 203.49 599.24C206.11 599.78 206.85 595.76 204.32 595.24C197.397 593.813 190.592 591.867 183.96 589.42C181.52 588.46 179.99 592.25 182.49 593.24Z" fill="#F3BB4D"/>
<path d="M220.66 601.83C227.877 602.531 235.132 602.778 242.38 602.57C242.648 602.574 242.915 602.521 243.161 602.415C243.408 602.31 243.63 602.153 243.812 601.956C243.994 601.759 244.132 601.525 244.218 601.271C244.304 601.017 244.335 600.747 244.31 600.48C244.31 599.949 244.099 599.441 243.724 599.066C243.349 598.691 242.84 598.48 242.31 598.48C235.225 598.682 228.134 598.438 221.08 597.75C218.48 597.53 218 601.58 220.66 601.83Z" fill="#F3BB4D"/>
<path d="M259.72 601.39C266.913 600.59 274.053 599.463 281.14 598.01C283.73 597.45 282.86 593.46 280.32 594.01C273.347 595.43 266.347 596.537 259.32 597.33C256.69 597.6 257.06 601.68 259.72 601.39Z" fill="#F3BB4D"/>
<path d="M591.32 439.32C597.694 442.402 603.869 445.878 609.81 449.73C611.95 451.16 614.29 447.82 612.06 446.33C605.957 442.379 599.611 438.815 593.06 435.66C590.74 434.49 588.98 438.18 591.32 439.32Z" fill="#F3BB4D"/>
<path d="M623.16 460.06C628.356 464.762 632.941 470.097 636.81 475.94C638.1 478.11 641.63 476.06 640.23 473.71C636.175 467.583 631.371 461.987 625.93 457.05C623.91 455.24 621.26 458.35 623.16 460.06Z" fill="#F3BB4D"/>
<path d="M644.22 490.9C646.579 497.491 648.085 504.357 648.7 511.33C648.91 513.87 652.99 513.67 652.77 510.96C652.114 503.639 650.532 496.432 648.06 489.51C647.06 486.98 643.29 488.55 644.22 490.9Z" fill="#F3BB4D"/>
<path d="M648.36 530.53C647.479 537.495 645.836 544.343 643.46 550.95C642.53 553.32 646.31 554.86 647.3 552.34C649.778 545.445 651.491 538.299 652.41 531.03C652.72 528.34 648.65 527.99 648.36 530.53Z" fill="#F3BB4D"/>
<path d="M636.29 566.14C632.68 572.175 628.458 577.821 623.69 582.99C621.95 584.86 624.86 587.73 626.69 585.75C631.652 580.371 636.048 574.497 639.81 568.22C641.12 565.85 637.53 563.91 636.29 566.14Z" fill="#F3BB4D"/>
<path d="M611.35 594.5C609.95 595.57 608.6 596.7 607.16 597.72L602.84 600.72L598.36 603.55C596.86 604.47 595.3 605.3 593.78 606.18C593.55 606.31 593.348 606.484 593.186 606.692C593.023 606.901 592.904 607.139 592.834 607.394C592.764 607.648 592.746 607.914 592.779 608.176C592.813 608.438 592.898 608.691 593.03 608.92C593.14 609.165 593.301 609.384 593.502 609.562C593.702 609.74 593.939 609.873 594.195 609.952C594.452 610.032 594.722 610.056 594.988 610.023C595.255 609.989 595.511 609.9 595.74 609.76C597.32 608.85 598.93 607.99 600.48 607.04L605.1 604.12L609.57 600.98C611.06 599.93 612.46 598.76 613.91 597.65C614.127 597.493 614.309 597.291 614.442 597.058C614.575 596.825 614.656 596.566 614.681 596.299C614.705 596.032 614.672 595.763 614.584 595.509C614.496 595.256 614.355 595.024 614.17 594.83C614.007 594.622 613.805 594.449 613.575 594.32C613.344 594.191 613.091 594.108 612.829 594.078C612.567 594.047 612.301 594.069 612.047 594.141C611.793 594.214 611.557 594.336 611.35 594.5Z" fill="#F3BB4D"/>
<path d="M576.18 614.29C569.549 616.737 562.743 618.682 555.82 620.11C553.3 620.63 554.03 624.65 556.65 624.11C563.79 622.639 570.81 620.633 577.65 618.11C580.1 617.13 578.57 613.34 576.18 614.29Z" fill="#F3BB4D"/>
<path d="M539.04 622.68C531.986 623.368 524.895 623.612 517.81 623.41C517.28 623.41 516.771 623.621 516.396 623.996C516.021 624.371 515.81 624.879 515.81 625.41C515.783 625.677 515.813 625.946 515.898 626.2C515.983 626.455 516.12 626.688 516.301 626.886C516.483 627.083 516.704 627.24 516.95 627.346C517.196 627.452 517.462 627.504 517.73 627.5C524.978 627.708 532.233 627.461 539.45 626.76C542.09 626.46 541.62 622.41 539.04 622.68Z" fill="#F3BB4D"/>
<path d="M500.81 622.21C493.75 621.43 486.75 620.323 479.81 618.89C477.27 618.34 476.39 622.33 478.99 622.89C486.077 624.33 493.217 625.457 500.41 626.27C503.02 626.55 503.4 622.48 500.81 622.21Z" fill="#F3BB4D"/>
<path d="M482.71 639.74L470.52 616.4L496.35 611.23" stroke="#F3BB4D" stroke-width="3" stroke-miterlimit="10" stroke-linecap="round"/>
<path d="M151.52 403.63L177.64 406.93L167.16 431.08" stroke="#F3BB4D" stroke-width="3" stroke-miterlimit="10" stroke-linecap="round"/>
<path d="M304 142L74 142" stroke="#F3BA4D" stroke-width="2" stroke-miterlimit="10"/>
<path d="M321.93 172H169" stroke="#F3BA4D" stroke-width="2" stroke-miterlimit="10"/>
<path d="M238.49 202.659H100.57" stroke="#F3BA4D" stroke-width="2" stroke-miterlimit="10"/>
<defs>
<radialGradient id="paint0_radial_264_2683" cx="0" cy="0" r="1" gradientUnits="userSpaceOnUse" gradientTransform="translate(442.438 623.037) rotate(114.508) scale(303.746 842.704)">
<stop stop-color="#F15F60"/>
<stop offset="0.5" stop-color="#1F4B45"/>
<stop offset="1" stop-color="#2B2C2B"/>
</radialGradient>
</defs>
</svg>
