<svg width="744" height="982" viewBox="0 0 744 982" fill="none" xmlns="http://www.w3.org/2000/svg">
<rect width="744" height="982" fill="#1D4B44"/>
<path d="M55.1399 981.152C55.1399 856.362 195.58 755.199 368.82 755.199C542.06 755.199 682.5 856.362 682.5 981.152" fill="url(#paint0_radial_264_2826)"/>
<path d="M701.19 611.592H456.01C447.759 611.592 441.07 618.266 441.07 626.499V785.591C441.07 793.824 447.759 800.498 456.01 800.498H701.19C709.441 800.498 716.13 793.824 716.13 785.591V626.499C716.13 618.266 709.441 611.592 701.19 611.592Z" stroke="#BCE2D2" stroke-width="2" stroke-miterlimit="10"/>
<path d="M712.47 622.119H467.29C459.039 622.119 452.35 628.793 452.35 637.025V796.118C452.35 804.35 459.039 811.024 467.29 811.024H712.47C720.721 811.024 727.41 804.35 727.41 796.118V637.025C727.41 628.793 720.721 622.119 712.47 622.119Z" stroke="#BCE2D2" stroke-width="2" stroke-miterlimit="10"/>
<path d="M531.62 873.095L569.21 811.024L610.17 811.363L648.13 873.095H531.62Z" stroke="#BCE2D2" stroke-width="2" stroke-miterlimit="10"/>
<path d="M639.88 716.896H622.13V766.195H639.88V716.896Z" stroke="#BCE2D2" stroke-width="2" stroke-miterlimit="10"/>
<path d="M667.69 688.978H649.94V766.195H667.69V688.978Z" stroke="#BCE2D2" stroke-width="2" stroke-miterlimit="10"/>
<path d="M695.5 705.651H677.75V766.195H695.5V705.651Z" stroke="#BCE2D2" stroke-width="2" stroke-miterlimit="10"/>
<path d="M479.39 774.376H695.49" stroke="#BCE2D2" stroke-width="2" stroke-miterlimit="10"/>
<path d="M471.66 662.019C476.05 658.497 480.34 654.815 484.85 651.453C486.44 650.265 487.97 649.527 489.75 650.275C491.271 651.087 492.627 652.173 493.75 653.478C496.92 656.711 499.87 659.744 504.35 661.081C508.75 662.381 513.475 662.026 517.63 660.083C521.39 658.307 524.17 655.005 527.2 652.261C529.81 649.886 532.76 647.851 536.28 649.358C538.61 650.355 540.61 652.161 542.64 653.648C544.67 655.135 546.73 656.641 548.87 657.898C553.07 660.463 557.75 662.558 562.74 662.757C567.46 662.957 571.66 661.061 575.48 658.477C578.63 656.342 581.76 653.558 585.55 652.7C588.9 651.942 591.83 653.768 594.4 655.873C597.4 658.357 600.31 661.151 604.08 662.458C611.82 665.142 618 659.046 623.85 655.065C626.52 653.249 629.31 651.652 632.41 652.251C636.12 652.969 639.06 655.983 642.12 657.998C645.69 660.353 649.83 661.62 654.12 660.363C658.41 659.106 661.52 656.182 665.02 653.788C668.28 651.553 671.56 650.285 675.53 650.575C679.017 650.852 682.32 652.253 684.94 654.566C686.262 655.768 687.347 657.206 688.14 658.806C689.58 661.67 693.9 659.146 692.46 656.282C688.73 648.879 679.96 644.638 671.81 645.676C667.3 646.254 663.7 648.529 660.1 651.163C657.1 653.339 653.66 656.242 649.74 655.843C646 655.454 642.85 652.241 639.85 650.226C636.4 647.891 632.54 646.564 628.37 647.432C624.76 648.19 621.65 650.425 618.76 652.62C615.87 654.815 613.08 657.06 609.9 657.858C608.429 658.224 606.883 658.14 605.46 657.619C603.922 656.982 602.494 656.107 601.23 655.025C598.09 652.49 595.17 649.587 591.3 648.19C582.3 644.947 576.01 653.458 568.61 656.691C559.51 660.682 550.02 652.9 543.18 647.801C539.24 644.878 534.75 642.613 529.83 644.588C525.83 646.175 523 649.447 519.94 652.281C516.88 655.115 513.61 656.96 509.37 656.871C507.379 656.836 505.42 656.356 503.64 655.464C501.922 654.487 500.375 653.237 499.06 651.762C496.17 648.769 493.06 645.137 488.51 644.987C485.86 644.898 483.62 646.165 481.59 647.741C479.37 649.467 477.19 651.253 474.99 653.019L468.14 658.507C467.677 658.979 467.418 659.613 467.418 660.273C467.418 660.933 467.677 661.567 468.14 662.039C468.616 662.494 469.251 662.748 469.91 662.748C470.57 662.748 471.204 662.494 471.68 662.039L471.66 662.019Z" fill="#BCE2D2"/>
<path d="M553.3 720.857C553.3 727.162 551.426 733.326 547.915 738.568C544.404 743.811 539.413 747.897 533.574 750.309C527.736 752.722 521.311 753.353 515.113 752.122C508.915 750.891 503.222 747.854 498.755 743.395C494.287 738.935 491.245 733.254 490.013 727.07C488.781 720.885 489.415 714.475 491.835 708.65C494.255 702.826 498.352 697.848 503.607 694.346C508.862 690.844 515.041 688.976 521.36 688.978V720.857H553.3Z" stroke="#BCE2D2" stroke-width="2" stroke-miterlimit="10"/>
<path d="M528.87 682.124V711.179H558.63C558.63 711.179 555.82 682.124 528.87 682.124Z" stroke="#BCE2D2" stroke-width="2" stroke-miterlimit="10"/>
<path d="M57.2002 638.133C36.8102 629.602 23.7102 602.353 28.1002 580.053C30.1002 570.076 35.1502 562.832 43.4202 551.008C48.8307 543.289 54.9942 536.124 61.8202 529.616C94.3002 498.456 117.96 501.919 123.1 483.72C127.77 467.167 110.1 457.429 116.97 442.452C122.3 430.878 138.74 423.964 152.2 425.64C169.81 427.825 172.36 443.46 185.9 443.979C203.54 444.657 207.28 418.446 230.33 407.291C257.73 394.031 305 405.645 316.12 434.809C325.48 459.374 308.18 493.727 291.61 495.942C281.97 497.239 279.12 486.803 264.03 483.72C241.23 479.05 213.03 495.772 211.95 511.228C211.21 521.684 223.43 523.76 227.27 540.272C230.27 553.243 227.34 571.871 216.54 578.487C206.45 584.663 196.6 576.012 159.86 567.781C134.99 562.223 121.54 559.38 115.44 566.254C109.34 573.129 117.06 582.218 112.37 605.995C110.52 615.384 109.05 622.398 103.18 628.943C92.9002 640.378 77.4302 641.106 74.0702 641.176C68.2982 641.314 62.5584 640.278 57.2002 638.133V638.133Z" stroke="#BCE2D2" stroke-width="2" stroke-miterlimit="10"/>
<path d="M276.78 792.725V740.902" stroke="#BCE2D2" stroke-width="2" stroke-miterlimit="10"/>
<path d="M279.9 705.491H273.64C266.908 705.491 261.45 710.937 261.45 717.654V759.141C261.45 765.858 266.908 771.303 273.64 771.303H279.9C286.632 771.303 292.09 765.858 292.09 759.141V717.654C292.09 710.937 286.632 705.491 279.9 705.491Z" stroke="#BCE2D2" stroke-width="2" stroke-miterlimit="10"/>
<path d="M457.992 982L458.32 904.165" stroke="#BCE2D2" stroke-width="2" stroke-miterlimit="10"/>
<path d="M462.78 853.708H453.86C444.267 853.708 436.49 861.468 436.49 871.039V930.147C436.49 939.718 444.267 947.478 453.86 947.478H462.78C472.373 947.478 480.15 939.718 480.15 930.147V871.039C480.15 861.468 472.373 853.708 462.78 853.708Z" stroke="#BCE2D2" stroke-width="2" stroke-miterlimit="10"/>
<path d="M704.68 982V908.156" stroke="#BCE2D2" stroke-width="2" stroke-miterlimit="10"/>
<path d="M709.14 857.699H700.22C690.627 857.699 682.85 865.459 682.85 875.03V934.138C682.85 943.709 690.627 951.469 700.22 951.469H709.14C718.733 951.469 726.51 943.709 726.51 934.138V875.03C726.51 865.459 718.733 857.699 709.14 857.699Z" stroke="#BCE2D2" stroke-width="2" stroke-miterlimit="10"/>
<path d="M640.17 203.889C686.054 203.889 723.25 166.776 723.25 120.995C723.25 75.2139 686.054 38.1011 640.17 38.1011C594.286 38.1011 557.09 75.2139 557.09 120.995C557.09 166.776 594.286 203.889 640.17 203.889Z" fill="#F15D5F"/>
<path d="M324.86 103.484H615.42" stroke="#F3BA4D" stroke-width="2" stroke-miterlimit="10"/>
<path d="M489.03 131.771H641.96" stroke="#F3BA4D" stroke-width="2" stroke-miterlimit="10"/>
<path d="M450.47 166.143H588.39" stroke="#F3BA4D" stroke-width="2" stroke-miterlimit="10"/>
<path d="M111.01 340.252H8.16992" stroke="#F3BA4D" stroke-width="2" stroke-miterlimit="10"/>
<path d="M86.8201 370.863H209.04" stroke="#F3BA4D" stroke-width="2" stroke-miterlimit="10"/>
<path d="M458.32 515.947H580.54" stroke="#F3BA4D" stroke-width="2" stroke-miterlimit="10"/>
<path d="M135.36 398.94H59.5901" stroke="#F3BA4D" stroke-width="2" stroke-miterlimit="10"/>
<path d="M594.98 538.796H519.21" stroke="#F3BA4D" stroke-width="2" stroke-miterlimit="10"/>
<path d="M138.72 980.124H343.1V870.032H138.72H124.99L138.72 980.124Z" stroke="#BCE2D2" stroke-width="2" stroke-miterlimit="10"/>
<path d="M4.5 980.064L50.82 657.659H102.2L138.05 980.064H4.5Z" stroke="#BCE2D2" stroke-width="2" stroke-miterlimit="10"/>
<path d="M28.05 814.656H120.43" stroke="#BCE2D2" stroke-width="2" stroke-miterlimit="10"/>
<path d="M43.71 706.698H108.6" stroke="#BCE2D2" stroke-width="2" stroke-miterlimit="10"/>
<path d="M190.99 910.156H167.5V980.009H190.99V910.156Z" stroke="#BCE2D2" stroke-width="2" stroke-miterlimit="10"/>
<path d="M127.85 888.291H343.1" stroke="#BCE2D2" stroke-width="2" stroke-miterlimit="10"/>
<path d="M261.45 918.862H318.74" stroke="#BCE2D2" stroke-width="2" stroke-miterlimit="10"/>
<path d="M261.45 941.092H318.74" stroke="#BCE2D2" stroke-width="2" stroke-miterlimit="10"/>
<defs>
<radialGradient id="paint0_radial_264_2826" cx="0" cy="0" r="1" gradientUnits="userSpaceOnUse" gradientTransform="translate(435.82 705.122) rotate(114.508) scale(303.746 842.704)">
<stop stop-color="#F15D5F"/>
<stop offset="0.496528" stop-color="#1D4B44"/>
<stop offset="1" stop-color="#2A2C2B"/>
</radialGradient>
</defs>
</svg>
