<svg width="100" height="175" viewBox="0 0 100 175" fill="none" xmlns="http://www.w3.org/2000/svg">
<rect x="1" y="1" width="98" height="56" stroke="#1F4B45" stroke-width="2"/>
<path d="M13.8555 7.83826H86.9979" stroke="#388E81" stroke-width="2"/>
<path d="M13.8555 11.886H86.9979" stroke="#388E81" stroke-width="2"/>
<path d="M13.8555 15.8291H86.9979" stroke="#388E81" stroke-width="2"/>
<path d="M13.8555 19.875H86.9979" stroke="#388E81" stroke-width="2"/>
<path d="M65.3828 49.6581H87.7848" stroke="#1F4B45" stroke-width="2"/>
<path d="M65.0469 46.1301C66.951 46.5452 71.2074 46.649 73.3356 43.6395C76.0238 40.0074 77.928 35.3376 81.2883 35.6489C83.9765 35.8565 86.1047 36.998 86.8888 37.5169" stroke="#388E81" stroke-width="2"/>
<path d="M11.8398 50.4872H41.6345" stroke="#1F4B45" stroke-width="2"/>
<line x1="13.9609" y1="28.0735" x2="13.9609" y2="46.7528" stroke="#1D4B44" stroke-width="2"/>
<line x1="20.6797" y1="33.2628" x2="20.6797" y2="46.7534" stroke="#1D4B44" stroke-width="2"/>
<line x1="27.4023" y1="39.489" x2="27.4023" y2="46.7532" stroke="#1D4B44" stroke-width="2"/>
<line x1="34.1211" y1="31.1875" x2="34.1211" y2="46.7536" stroke="#1D4B44" stroke-width="2"/>
<path d="M44.4071 99.8496V104.15C44.4071 104.15 24.0213 105.142 15.0605 126.312C6.09968 147.482 9.12394 157.074 9.12394 157.074C9.12394 157.074 9.90802 160.382 22.6771 159.28H88.0909C88.0909 159.28 93.0193 158.398 91.5632 148.805C90.2191 139.212 85.4027 124.879 85.4027 124.879C85.4027 124.879 78.01 105.363 56.2801 103.709V99.8496C56.3921 99.8496 49.8955 105.363 44.4071 99.8496Z" fill="#EEF6F2" stroke="#1F4B45" stroke-width="2" stroke-miterlimit="10"/>
<path d="M73.756 122.342H26.5998C24.8077 122.342 23.3516 123.775 23.3516 125.539V155.971C23.3516 157.735 24.8077 159.169 26.5998 159.169H73.868C75.6602 159.169 77.1163 157.735 77.1163 155.971V125.539C77.0043 123.775 75.5482 122.342 73.756 122.342Z" fill="#EEF6F2" stroke="#1F4B45" stroke-width="2" stroke-miterlimit="10"/>
<path d="M15.3975 159.391C15.3975 159.391 2.51639 167.881 5.42864 187.507C8.3409 207.133 20.55 244.401 20.55 244.401C20.55 244.401 29.5108 247.819 37.1274 244.401C37.1274 244.401 32.759 223.672 31.5269 213.969C30.2948 204.156 30.2948 180.34 30.2948 180.34C30.2948 180.34 45.4162 177.253 50.1206 177.253C50.1206 177.253 68.1542 178.245 70.1703 180.34C70.1703 180.34 71.1784 205.479 69.1623 213.087L63.7858 244.401C63.7858 244.401 72.0745 248.701 79.8032 244.401C79.8032 244.401 93.9164 209.228 95.5966 186.074C97.2767 162.919 83.4995 159.391 83.4995 159.391H15.3975Z" fill="#EEF6F2" stroke="#1F4B45" stroke-width="2" stroke-miterlimit="10"/>
<path d="M57.8483 92.462C59.1924 92.462 60.2005 91.1389 60.2005 89.5953C60.2005 88.0516 59.1924 86.7285 57.8483 86.7285C56.5042 86.7285 55.4961 88.0516 55.4961 89.5953C55.4961 91.2492 56.5042 92.462 57.8483 92.462Z" fill="#EEF6F2" stroke="#1F4B45" stroke-width="2" stroke-miterlimit="10"/>
<path d="M42.7272 91.9112C44.0713 91.9112 45.0794 90.5881 45.0794 89.0445C45.0794 87.5009 44.0713 86.1777 42.7272 86.1777C41.3831 86.1777 40.375 87.5009 40.375 89.0445C40.375 90.6984 41.3831 91.9112 42.7272 91.9112Z" fill="#EEF6F2" stroke="#1F4B45" stroke-width="2" stroke-miterlimit="10"/>
<path d="M50.5685 102.386H49.6725C45.8641 102.386 42.8398 99.2985 42.8398 95.6599V80.444C42.8398 79.5619 43.6239 78.9004 44.408 78.9004H55.833C56.7291 78.9004 57.4011 79.6722 57.4011 80.444V95.6599C57.4011 99.2985 54.3769 102.386 50.5685 102.386Z" fill="#EEF6F2" stroke="#1F4B45" stroke-width="2" stroke-miterlimit="10"/>
<path d="M44.2965 80.1132C44.2965 80.1132 44.1844 86.7288 42.0563 86.7288C39.9281 86.7288 40.0401 78.349 40.0401 78.349C40.0401 78.349 41.2722 77.1362 41.7202 76.6951C42.1683 76.2541 43.4004 73.0566 43.4004 73.0566C43.4004 73.0566 45.0805 69.418 51.017 69.418C56.9536 69.418 59.9778 72.836 61.546 72.836C63.2261 72.836 60.2019 76.6951 60.2019 76.6951C60.2019 76.6951 60.6499 85.4056 59.1938 86.7288C59.1938 86.7288 58.0737 85.6261 57.1776 88.6032C57.1776 88.6032 54.1533 83.862 55.4974 80.0029C55.4974 80.0029 57.8496 78.4593 53.1452 80.0029C48.4408 81.5466 44.6325 79.5619 44.6325 79.5619C44.6325 79.5619 43.0643 79.0106 44.2965 80.1132Z" fill="#EEF6F2" stroke="#1F4B45" stroke-width="2" stroke-miterlimit="10"/>
</svg>
