<svg width="937" height="335" viewBox="0 0 937 335" fill="none" xmlns="http://www.w3.org/2000/svg">
<path d="M108.561 73.3468C115.057 77.6862 122.695 80.0015 130.508 80C140.982 79.998 151.027 75.8355 158.433 68.428C165.839 61.0206 170 50.9747 170 40.5C170 32.6873 167.683 25.0501 163.343 18.5542C159.002 12.0583 152.832 6.99548 145.614 4.00605C138.396 1.01661 130.454 0.234824 122.791 1.75956C115.129 3.28429 108.09 7.04706 102.567 12.572C97.0428 18.0969 93.2813 25.1359 91.7581 32.7986C90.2348 40.4614 91.0182 48.4037 94.009 55.6213C96.9998 62.8388 102.064 69.0074 108.561 73.3468Z" fill="white" stroke="#F15D5F" stroke-width="2"/>
<path d="M214.852 80H160.59C160.59 80 142.693 73.4218 153.431 56.3872C154.828 54.7892 156.63 53.5878 158.652 52.9063C160.673 52.2248 162.842 52.0877 164.934 52.5091C164.934 52.5091 164.594 32.698 182.823 32.0248C201.053 31.3517 202.15 44.5847 202.15 44.5847C202.15 44.5847 212.2 36.6602 217.148 51.3312C217.148 51.3312 232.231 54.7044 225.072 72.9169C225.072 72.9169 222.946 76.7109 214.852 80Z" fill="white" stroke="#1D4B44" stroke-width="2" stroke-miterlimit="10"/>
<path d="M859.83 11.9766H517.02C514.811 11.9766 513.02 13.7674 513.02 15.9766V234.35C513.02 236.559 514.811 238.35 517.02 238.35H859.83C862.039 238.35 863.83 236.559 863.83 234.35V15.9766C863.83 13.7674 862.039 11.9766 859.83 11.9766Z" fill="white" stroke="#1D4B44" stroke-width="2" stroke-miterlimit="10"/>
<path d="M-23 282.978C-23 282.978 890.115 263.79 938 322.829V336H-23V282.978Z" stroke="#1D4B44" stroke-width="2" stroke-miterlimit="10"/>
<path d="M156 238.969C156 225.47 172.85 214.526 193.63 214.526C214.41 214.526 231.27 225.51 231.27 238.969L246.97 335.721H136.06L156 238.969Z" fill="white" stroke="#1D4B44" stroke-width="2" stroke-miterlimit="10"/>
<path d="M301.12 251.32C301.12 239.548 315.82 230.003 333.95 230.003C352.08 230.003 366.78 239.548 366.78 251.32L380.47 335.721H283.78L301.12 251.32Z" fill="white" stroke="#1D4B44" stroke-width="2" stroke-miterlimit="10"/>
<path d="M231 199.379C231 180.359 249.11 164.942 271.46 164.942C293.81 164.942 311.92 180.359 311.92 199.379L328.8 335.72H209.63L231 199.379Z" fill="white" stroke="#1D4B44" stroke-width="2" stroke-miterlimit="10"/>
<path d="M418.27 335.721V283.86" stroke="#1D4B44" stroke-width="2" stroke-miterlimit="10"/>
<path d="M421.4 248.424H415.14C408.408 248.424 402.95 253.874 402.95 260.596V302.112C402.95 308.834 408.408 314.283 415.14 314.283H421.4C428.133 314.283 433.59 308.834 433.59 302.112V260.596C433.59 253.874 428.133 248.424 421.4 248.424Z" fill="white" stroke="#1D4B44" stroke-width="2" stroke-miterlimit="10"/>
<path d="M482.69 335.72V276.671" stroke="#1D4B44" stroke-width="2" stroke-miterlimit="10"/>
<path d="M486.26 236.333H479.13C471.464 236.333 465.25 242.537 465.25 250.191V297.449C465.25 305.103 471.464 311.308 479.13 311.308H486.26C493.926 311.308 500.14 305.103 500.14 297.449V250.191C500.14 242.537 493.926 236.333 486.26 236.333Z" fill="white" stroke="#1D4B44" stroke-width="2" stroke-miterlimit="10"/>
<rect x="540" y="53" width="251" height="22" rx="8" fill="#ECF2EF"/>
<rect x="540" y="101" width="251" height="22" rx="8" fill="#ECF2EF"/>
<rect x="728" y="191" width="121" height="22" rx="8" fill="#BCE2D2"/>
</svg>
