<svg width="206" height="118" viewBox="0 0 206 118" fill="none" xmlns="http://www.w3.org/2000/svg">
<path d="M51.125 50.8379H160.141V113.5C160.141 115.778 158.295 117.625 156.016 117.625H55.25C52.9718 117.625 51.125 115.778 51.125 113.5V50.8379Z" fill="#E1EEE8" stroke="#388E81" stroke-width="0.75"/>
<path d="M98.4907 91.8215C98.4907 93.7075 101.688 95.2363 105.633 95.2363C109.578 95.2363 112.775 93.7075 112.775 91.8215" stroke="#388E81" stroke-width="0.75"/>
<ellipse cx="95.859" cy="80.4386" rx="2.25547" ry="2.27653" fill="#388E81"/>
<ellipse cx="115.406" cy="80.4386" rx="2.25547" ry="2.27653" fill="#388E81"/>
<rect x="46.6133" y="39.0762" width="117.662" height="11.7709" rx="4.125" fill="#E1EEE8" stroke="#388E81" stroke-width="0.75"/>
<path d="M192.072 35.6453C188.93 37.7604 185.237 38.8888 181.459 38.8881C176.393 38.8871 171.535 36.8585 167.953 33.2477C164.37 29.6367 162.357 24.739 162.357 19.6315C162.357 15.8222 163.478 12.0986 165.578 8.93168C167.678 5.76483 170.662 3.29709 174.153 1.84007C177.644 0.383072 181.485 0.00208982 185.19 0.74518C188.896 1.48827 192.3 3.32217 194.972 6.0154C197.644 8.70866 199.463 12.1403 200.2 15.8765C200.937 19.6127 200.558 23.4852 199.111 27.0042C197.664 30.5232 195.215 33.5302 192.072 35.6453Z" fill="#EEF6F2" stroke="#F15D5F" stroke-width="0.75"/>
<path d="M135.221 26.6833H161.607C161.607 26.6833 170.309 23.4253 165.088 14.9885C164.408 14.1971 163.532 13.602 162.549 13.2645C161.566 12.927 160.512 12.8591 159.494 13.0678C159.494 13.0678 159.659 3.25584 150.795 2.92246C141.931 2.58908 141.398 9.14302 141.398 9.14302C141.398 9.14302 136.511 5.21823 134.105 12.4844C134.105 12.4844 126.771 14.1551 130.252 23.1753C130.252 23.1753 131.286 25.0543 135.221 26.6833Z" fill="#EEF6F2" stroke="#1D4B44" stroke-width="0.75" stroke-miterlimit="10"/>
<line y1="117.812" x2="206" y2="117.812" stroke="#1D4B44" stroke-width="0.375"/>
<path d="M18.7962 47.0488L15.0371 50.843M15.0371 47.0488L18.7962 50.843" stroke="#F15D5F" stroke-width="0.75" stroke-linecap="round" stroke-linejoin="round"/>
<path d="M192.466 68.6758L188.707 72.47M188.707 68.6758L192.466 72.47" stroke="#F15D5F" stroke-width="0.75" stroke-linecap="round" stroke-linejoin="round"/>
<path d="M92.8509 20.1094L89.0918 23.9036M89.0918 20.1094L92.8509 23.9036" stroke="#F15D5F" stroke-width="0.75" stroke-linecap="round" stroke-linejoin="round"/>
<path d="M36.8392 88.0254L33.0801 91.8196M33.0801 88.0254L36.8392 91.8196" stroke="#F15D5F" stroke-width="0.75" stroke-linecap="round" stroke-linejoin="round"/>
</svg>
