<svg width="107" height="248" viewBox="0 0 107 248" fill="none" xmlns="http://www.w3.org/2000/svg">
<rect x="1.97949" y="1" width="103.306" height="56" stroke="#1F4B45" stroke-width="2"/>
<path d="M15.5701 7.83789H92.5935" stroke="#388E81" stroke-width="2"/>
<path d="M15.5701 11.8857H92.5935" stroke="#388E81" stroke-width="2"/>
<path d="M15.5701 15.8291H92.5935" stroke="#388E81" stroke-width="2"/>
<path d="M15.5701 19.875H92.5935" stroke="#388E81" stroke-width="2"/>
<path d="M69.8315 49.6582H93.4222" stroke="#1F4B45" stroke-width="2"/>
<path d="M69.4778 46.1297C71.483 46.5448 75.9652 46.6486 78.2063 43.6391C81.0372 40.0071 83.0424 35.3372 86.581 35.6486C89.4119 35.8561 91.653 36.9976 92.4787 37.5165" stroke="#388E81" stroke-width="2"/>
<path d="M13.4475 50.4873H44.8231" stroke="#1F4B45" stroke-width="2"/>
<line x1="10.9609" y1="28.0732" x2="10.9609" y2="46.7525" stroke="#1D4B44" stroke-width="2"/>
<line x1="17.6797" y1="33.2627" x2="17.6797" y2="46.7533" stroke="#1D4B44" stroke-width="2"/>
<line x1="24.4023" y1="39.4893" x2="24.4023" y2="46.7534" stroke="#1D4B44" stroke-width="2"/>
<line x1="31.1211" y1="31.1875" x2="31.1211" y2="46.7536" stroke="#1D4B44" stroke-width="2"/>
<path d="M47.743 99.8496V104.15C47.743 104.15 26.2755 105.142 16.8393 126.312C7.40301 147.482 10.5877 157.074 10.5877 157.074C10.5877 157.074 11.4134 160.382 24.8601 159.28H93.7448C93.7448 159.28 98.9347 158.398 97.4013 148.805C95.9859 139.212 90.9139 124.879 90.9139 124.879C90.9139 124.879 83.129 105.363 60.2461 103.709V99.8496C60.364 99.8496 53.5227 105.363 47.743 99.8496Z" fill="#EEF6F2" stroke="#1F4B45" stroke-width="2" stroke-miterlimit="10"/>
<path d="M78.6493 122.342H28.9909C27.1037 122.342 25.5703 123.775 25.5703 125.539V155.971C25.5703 157.735 27.1037 159.169 28.9909 159.169H78.7672C80.6545 159.169 82.1879 157.735 82.1879 155.971V125.539C82.0699 123.775 80.5365 122.342 78.6493 122.342Z" fill="#EEF6F2" stroke="#1F4B45" stroke-width="2" stroke-miterlimit="10"/>
<path d="M17.1941 159.391C17.1941 159.391 3.62948 167.881 6.69626 187.507C9.76305 207.133 22.62 244.401 22.62 244.401C22.62 244.401 32.0562 247.819 40.077 244.401C40.077 244.401 35.4768 223.672 34.1794 213.969C32.8819 204.156 32.8819 180.34 32.8819 180.34C32.8819 180.34 48.8056 177.253 53.7596 177.253C53.7596 177.253 72.7501 178.245 74.8732 180.34C74.8732 180.34 75.9348 205.479 73.8117 213.087L68.1499 244.401C68.1499 244.401 76.8784 248.701 85.0172 244.401C85.0172 244.401 99.8793 209.228 101.649 186.074C103.418 162.919 88.9097 159.391 88.9097 159.391H17.1941Z" fill="#EEF6F2" stroke="#1F4B45" stroke-width="2" stroke-miterlimit="10"/>
<path d="M61.8974 92.462C63.3129 92.462 64.3744 91.1389 64.3744 89.5953C64.3744 88.0516 63.3129 86.7285 61.8974 86.7285C60.482 86.7285 59.4204 88.0516 59.4204 89.5953C59.4204 91.2492 60.482 92.462 61.8974 92.462Z" fill="#EEF6F2" stroke="#1F4B45" stroke-width="2" stroke-miterlimit="10"/>
<path d="M45.9738 91.9112C47.3893 91.9112 48.4509 90.5881 48.4509 89.0445C48.4509 87.5009 47.3893 86.1777 45.9738 86.1777C44.5584 86.1777 43.4968 87.5009 43.4968 89.0445C43.4968 90.6984 44.5584 91.9112 45.9738 91.9112Z" fill="#EEF6F2" stroke="#1F4B45" stroke-width="2" stroke-miterlimit="10"/>
<path d="M54.2313 102.386H53.2877C49.2773 102.386 46.0925 99.2985 46.0925 95.6599V80.444C46.0925 79.5619 46.9182 78.9004 47.7439 78.9004H59.7751C60.7187 78.9004 61.4265 79.6722 61.4265 80.444V95.6599C61.4265 99.2985 58.2417 102.386 54.2313 102.386Z" fill="#EEF6F2" stroke="#1F4B45" stroke-width="2" stroke-miterlimit="10"/>
<path d="M47.6264 80.1132C47.6264 80.1132 47.5084 86.7288 45.2673 86.7288C43.0262 86.7288 43.1441 78.349 43.1441 78.349C43.1441 78.349 44.4416 77.1362 44.9134 76.6951C45.3852 76.2541 46.6827 73.0566 46.6827 73.0566C46.6827 73.0566 48.452 69.418 54.7036 69.418C60.9551 69.418 64.1398 72.836 65.7912 72.836C67.5605 72.836 64.3757 76.6951 64.3757 76.6951C64.3757 76.6951 64.8475 85.4056 63.3141 86.7288C63.3141 86.7288 62.1346 85.6261 61.191 88.6032C61.191 88.6032 58.0062 83.862 59.4217 80.0029C59.4217 80.0029 61.8987 78.4593 56.9447 80.0029C51.9906 81.5466 47.9802 79.5619 47.9802 79.5619C47.9802 79.5619 46.3289 79.0106 47.6264 80.1132Z" fill="#EEF6F2" stroke="#1F4B45" stroke-width="2" stroke-miterlimit="10"/>
</svg>
