<svg width="595" height="118" viewBox="0 0 595 118" fill="none" xmlns="http://www.w3.org/2000/svg">
<path d="M425.016 84.1076V67.4727" stroke="#DAE5E1" stroke-miterlimit="10"/>
<path d="M426.04 56.1055H423.991C421.787 56.1055 420 57.8534 420 60.0096V73.3266C420 75.4827 421.787 77.2307 423.991 77.2307H426.04C428.244 77.2307 430.03 75.4827 430.03 73.3266V60.0096C430.03 57.8534 428.244 56.1055 426.04 56.1055Z" stroke="#DAE5E1" stroke-miterlimit="10"/>
<path d="M490.016 88.1154V71.4805" stroke="#DAE5E1" stroke-miterlimit="10"/>
<path d="M491.04 60.1133H488.991C486.787 60.1133 485 61.8612 485 64.0174V77.3344C485 79.4906 486.787 81.2385 488.991 81.2385H491.04C493.244 81.2385 495.03 79.4906 495.03 77.3344V64.0174C495.03 61.8612 493.244 60.1133 491.04 60.1133Z" stroke="#DAE5E1" stroke-miterlimit="10"/>
<path d="M65.0156 85.1076V68.4727" stroke="#DAE5E1" stroke-miterlimit="10"/>
<path d="M66.0398 57.1055H63.9905C61.7866 57.1055 60 58.8534 60 61.0096V74.3266C60 76.4827 61.7866 78.2307 63.9905 78.2307H66.0398C68.2437 78.2307 70.0304 76.4827 70.0304 74.3266V61.0096C70.0304 58.8534 68.2437 57.1055 66.0398 57.1055Z" stroke="#DAE5E1" stroke-miterlimit="10"/>
<path d="M145.016 88.1154V71.4805" stroke="#DAE5E1" stroke-miterlimit="10"/>
<path d="M146.04 60.1133H143.991C141.787 60.1133 140 61.8612 140 64.0174V77.3344C140 79.4906 141.787 81.2385 143.991 81.2385H146.04C148.244 81.2385 150.03 79.4906 150.03 77.3344V64.0174C150.03 61.8612 148.244 60.1133 146.04 60.1133Z" stroke="#DAE5E1" stroke-miterlimit="10"/>
<path d="M559.02 35.3684C559.02 28.5612 563.277 23.043 568.527 23.043C573.777 23.043 578.034 28.5612 578.034 35.3684L582 84.1601H554L559.02 35.3684Z" stroke="#DAE5E1" stroke-miterlimit="10"/>
<path d="M525.275 57.5631C525.275 53.9927 530.594 51.0977 537.157 51.0977C543.719 51.0977 549.038 53.9927 549.038 57.5631L554 83.1591H519L525.275 57.5631Z" stroke="#DAE5E1" stroke-miterlimit="10"/>
<path d="M355.096 93.5945C351.672 92.9952 347.208 95.7511 346.088 96.8465C344.969 97.942 342.197 99.3764 342.197 99.3764C340.831 99.9356 339.351 100.176 337.874 100.079C334.932 100.315 331.482 97.1314 331.482 97.1314C331.482 97.1314 328.786 94.9307 326.461 94.2823C324.071 93.5929 321.555 93.4352 319.095 93.8205C317.43 94.1182 315.841 94.7305 314.415 95.6233C312.898 96.903 311.272 98.0534 309.555 99.062C309.555 99.062 308.5 99.8627 305.252 100.044C302.003 100.226 300.15 98.5708 297.539 96.6058C296.075 95.4643 294.404 94.6028 292.614 94.0661C290.558 93.4685 288.388 93.342 286.274 93.6963C284.16 94.0507 282.158 94.8765 280.422 96.1097L277.269 98.4725C273.448 101.012 269.065 99.6318 269.065 99.6318C269.065 99.6318 268.517 99.7448 264.616 96.8269C260.715 93.9089 257.752 93.7222 257.752 93.7222C251.461 93.0394 248.559 94.9798 246.003 97.0037C243.447 99.0276 241.916 99.5876 241.916 99.5876C241.916 99.5876 237.11 101.769 232.074 97.3427C227.038 92.9166 222.213 93.5601 222.213 93.5601" stroke="#DAE5E1" stroke-miterlimit="10"/>
<path d="M231.994 108.623C236.593 112.666 240.987 110.672 240.987 110.672C240.987 110.672 242.383 110.181 244.718 108.314C247.052 106.447 249.709 104.688 255.458 105.312C255.458 105.312 258.169 105.484 261.729 108.147C265.289 110.809 265.791 110.711 265.791 110.711C265.791 110.711 269.808 111.974 273.293 109.655L276.17 107.493C277.756 106.366 279.586 105.611 281.518 105.287C283.45 104.963 285.433 105.08 287.312 105.627C288.954 106.115 290.487 106.901 291.831 107.945C294.216 109.743 295.903 111.296 298.86 111.104C301.818 110.912 302.797 110.181 302.797 110.181C304.365 109.254 305.85 108.199 307.235 107.027C308.536 106.21 309.988 105.649 311.508 105.376C313.757 105.024 316.058 105.17 318.242 105.804C320.365 106.393 322.831 108.407 322.831 108.407C322.831 108.407 325.984 111.305 328.67 111.089C330.021 111.18 331.374 110.959 332.622 110.446C332.622 110.446 335.133 109.134 336.177 108.137C337.221 107.14 341.278 104.615 344.406 105.19" stroke="#DAE5E1" stroke-miterlimit="10"/>
<path d="M595.001 83.6133H389.792C389.792 83.6133 350.014 83.4595 336.414 118" stroke="#DAE5E1" stroke-miterlimit="10"/>
<path d="M0 84.1055L202.509 84.1055C202.509 84.1055 226.713 83.9576 234.987 118.001" stroke="#DAE5E1" stroke-miterlimit="10"/>
<path d="M15.1581 34.3491C13.6888 33.1439 12.7447 29.2967 13.0611 26.1491C13.202 24.7477 13.5681 23.719 14.1644 22.0501C14.554 20.9595 14.9976 19.9463 15.4887 19.0254C17.83 14.6291 19.5346 15.1167 19.9037 12.5538C20.2414 10.2209 18.9647 8.84726 19.4606 6.73631C19.8449 5.10306 21.0293 4.12588 21.9956 4.35778C23.2642 4.66699 23.4477 6.87506 24.4232 6.9484C25.6938 7.04354 25.9635 3.34493 27.6245 1.76915C29.5988 -0.101958 33.0049 1.53526 33.81 5.65408C34.4843 9.12079 33.2381 13.9789 32.0436 14.2842C31.35 14.4665 31.1441 12.9938 30.0571 12.5578C28.4134 11.8977 26.3823 14.2584 26.3052 16.4407C26.2525 17.9174 27.1327 18.2088 27.4085 20.5397C27.6265 22.3751 27.4146 25.0014 26.6358 25.935C25.9087 26.8071 25.1989 25.5842 22.5523 24.4246C20.7606 23.6318 19.7912 23.2354 19.3511 24.2086C18.911 25.1818 19.4687 26.4563 19.13 29.818C18.9972 31.142 18.8907 32.1331 18.4679 33.0547C17.7276 34.6682 16.6132 34.7712 16.3709 34.7792C15.9559 34.7978 15.5433 34.6515 15.1581 34.3491V34.3491Z" stroke="#DAE5E1" stroke-miterlimit="10"/>
<path d="M8.53516 83.7348L14.1098 37.5977H20.2535L24.5405 83.7348H8.53516Z" stroke="#DAE5E1" stroke-miterlimit="10"/>
<path d="M11.2168 60.0703H22.2652" stroke="#DAE5E1" stroke-miterlimit="10"/>
<path d="M13.0898 44.6133H20.851" stroke="#DAE5E1" stroke-miterlimit="10"/>
</svg>
