<svg width="661" height="137" viewBox="0 0 661 137" fill="none" xmlns="http://www.w3.org/2000/svg">
<path d="M38.207 121.341V83.1133" stroke="#1D4B44" stroke-width="2" stroke-miterlimit="10"/>
<path d="M35.8689 56.9941H40.5462C45.5765 56.9941 49.6543 61.0109 49.6543 65.9659V96.5683C49.6543 101.523 45.5765 105.54 40.5462 105.54H35.8689C30.8387 105.54 26.7608 101.523 26.7608 96.5683V65.9659C26.7608 61.0109 30.8387 56.9941 35.8689 56.9941Z" stroke="#1D4B44" stroke-width="2" stroke-miterlimit="10"/>
<path d="M509.846 106.482V83.9727" stroke="#1D4B44" stroke-width="2" stroke-miterlimit="10"/>
<path d="M508.468 68.5938H511.222C514.183 68.5938 516.584 70.9585 516.584 73.8756V91.8918C516.584 94.8089 514.183 97.1736 511.222 97.1736H508.468C505.507 97.1736 503.106 94.8089 503.106 91.8918V73.8756C503.106 70.9585 505.507 68.5938 508.468 68.5938Z" stroke="#1D4B44" stroke-width="2" stroke-miterlimit="10"/>
<path d="M606.329 40.435C606.329 31.2362 615.21 23.7793 626.163 23.7793C637.116 23.7793 645.997 31.2362 645.997 40.435L654.271 106.369H595.855L606.329 40.435Z" stroke="#1D4B44" stroke-width="2" stroke-miterlimit="10"/>
<path d="M557.229 66.2818C557.229 60.6924 564.302 56.1602 573.03 56.1602C581.757 56.1602 588.83 60.6924 588.83 66.2818L595.428 106.353H548.885L557.229 66.2818Z" stroke="#1D4B44" stroke-width="2" stroke-miterlimit="10"/>
<path d="M661 106.098H137.238C137.238 106.098 35.7105 105.918 1 146.383" stroke="#1D4B44" stroke-width="2" stroke-miterlimit="10"/>
<path d="M114.664 106.45L117.261 38.5352H120.301L122.904 106.45H114.664Z" stroke="#1C4A43" stroke-width="2" stroke-miterlimit="10"/>
<path d="M118.783 38.5349V1L124.634 32.1302L118.783 38.5349Z" stroke="#1C4A43" stroke-width="2" stroke-miterlimit="10"/>
<path d="M118.783 38.5352L151.764 57.3333L121.477 46.7338L118.783 38.5352Z" stroke="#1C4A43" stroke-width="2" stroke-miterlimit="10"/>
<path d="M118.784 39.5038L81.3848 46.7066L111.278 35.0703L118.784 39.5038Z" stroke="#1C4A43" stroke-width="2" stroke-miterlimit="10"/>
<rect x="384.18" y="14.543" width="88.2178" height="36.1019" rx="1" stroke="#1D4B44" stroke-width="2"/>
<rect x="390.127" y="19.9863" width="76.3209" height="25.2157" rx="1" stroke="#1D4B44" stroke-width="2"/>
<path d="M418.583 28.2737C418.642 28.4456 418.502 28.6106 418.321 28.6106C418.181 28.6106 418.065 28.5105 418.014 28.3804C417.983 28.2992 417.944 28.2239 417.898 28.1545C417.813 28.0236 417.709 27.9136 417.586 27.8247C417.464 27.7341 417.329 27.6662 417.18 27.6209C417.032 27.5756 416.877 27.553 416.716 27.553C416.422 27.553 416.156 27.629 415.918 27.781C415.681 27.933 415.492 28.157 415.351 28.4529C415.212 28.7488 415.143 29.1119 415.143 29.542C415.143 29.9722 415.212 30.3352 415.351 30.6311C415.492 30.927 415.681 31.151 415.918 31.303C416.156 31.455 416.422 31.531 416.716 31.531C416.877 31.531 417.032 31.5084 417.18 31.4631C417.329 31.4178 417.464 31.3507 417.586 31.2618C417.709 31.1712 417.813 31.0605 417.898 30.9295C417.944 30.8594 417.983 30.784 418.014 30.7031C418.064 30.5732 418.181 30.4735 418.32 30.4735C418.502 30.4735 418.642 30.6386 418.583 30.8107C418.541 30.9331 418.489 31.0479 418.427 31.1551C418.31 31.3556 418.164 31.5262 417.991 31.6669C417.817 31.8059 417.622 31.9119 417.405 31.9846C417.191 32.0574 416.961 32.0938 416.716 32.0938C416.302 32.0938 415.934 31.9903 415.612 31.7833C415.29 31.5763 415.036 31.282 414.851 30.9004C414.667 30.5187 414.574 30.0659 414.574 29.542C414.574 29.0181 414.667 28.5653 414.851 28.1836C415.036 27.802 415.29 27.5077 415.612 27.3007C415.934 27.0937 416.302 26.9902 416.716 26.9902C416.961 26.9902 417.191 27.0266 417.405 27.0994C417.622 27.1722 417.817 27.2789 417.991 27.4196C418.164 27.5586 418.31 27.7284 418.427 27.929C418.489 28.0357 418.542 28.1506 418.583 28.2737Z" fill="black"/>
<path d="M419.912 32.0259C419.749 32.0259 419.618 31.8943 419.618 31.7321V28.6977C419.618 27.7922 420.352 27.0582 421.257 27.0582C421.636 27.0582 421.948 27.1245 422.191 27.2571C422.434 27.388 422.614 27.5683 422.731 27.798C422.848 28.0276 422.906 28.2888 422.906 28.5815C422.906 28.8741 422.848 29.1337 422.731 29.3601C422.614 29.5865 422.435 29.7644 422.193 29.8937C421.951 30.0215 421.643 30.0854 421.267 30.0854H420.212C420.062 30.0854 419.94 29.9637 419.94 29.8137C419.94 29.6636 420.062 29.542 420.212 29.542H421.248C421.507 29.542 421.715 29.5032 421.873 29.4256C422.033 29.348 422.148 29.238 422.219 29.0957C422.292 28.9518 422.328 28.7804 422.328 28.5815C422.328 28.3826 422.292 28.2087 422.219 28.0599C422.147 27.9112 422.03 27.7964 421.871 27.7155C421.711 27.633 421.501 27.5918 421.238 27.5918C420.668 27.5918 420.205 28.0543 420.205 28.6248V31.7321C420.205 31.8943 420.074 32.0259 419.912 32.0259ZM421.726 29.7943C421.834 29.7943 421.934 29.854 421.985 29.9496L422.859 31.584C422.966 31.784 422.822 32.0259 422.595 32.0259C422.483 32.0259 422.381 31.9641 422.329 31.8655L421.465 30.2254C421.362 30.0295 421.504 29.7943 421.726 29.7943Z" fill="black"/>
<path d="M425.369 32.0259C424.549 32.0259 423.885 31.3618 423.885 30.5427V28.5224C423.885 27.7137 424.541 27.0582 425.35 27.0582H426.547C426.694 27.0582 426.814 27.1776 426.814 27.325C426.814 27.4723 426.694 27.5918 426.547 27.5918H425.312C424.849 27.5918 424.473 27.9675 424.473 28.4311C424.473 28.8946 424.849 29.2703 425.312 29.2703H426.395C426.543 29.2703 426.662 29.3898 426.662 29.5372C426.662 29.6845 426.543 29.804 426.395 29.804H425.317C424.851 29.804 424.473 30.1819 424.473 30.6481C424.473 31.1143 424.851 31.4922 425.317 31.4922H426.585C426.732 31.4922 426.852 31.6117 426.852 31.759C426.852 31.9064 426.732 32.0259 426.585 32.0259H425.369Z" fill="black"/>
<path d="M429.37 32.0259C428.543 32.0259 427.873 31.3555 427.873 30.5285V28.6219C427.873 27.7582 428.573 27.0582 429.437 27.0582C429.907 27.0582 430.31 27.1576 430.645 27.3565C430.98 27.5538 431.236 27.8376 431.415 28.2079C431.593 28.5766 431.683 29.0181 431.683 29.5323C431.683 30.0498 431.593 30.4953 431.413 30.8688C431.232 31.2408 430.97 31.527 430.626 31.7275C430.282 31.9264 429.863 32.0259 429.37 32.0259ZM428.46 30.6203C428.46 31.1019 428.851 31.4922 429.332 31.4922C429.733 31.4922 430.066 31.413 430.33 31.2545C430.594 31.096 430.79 30.8704 430.92 30.5778C431.049 30.2851 431.114 29.9366 431.114 29.5323C431.114 29.1313 431.05 28.786 430.922 28.4966C430.794 28.2055 430.603 27.9823 430.349 27.8271C430.094 27.6702 429.778 27.5918 429.399 27.5918C428.88 27.5918 428.46 28.0119 428.46 28.53V30.6203Z" fill="black"/>
<path d="M432.962 27.0582C433.124 27.0582 433.256 27.1897 433.256 27.3519V31.7321C433.256 31.8943 433.124 32.0259 432.962 32.0259C432.8 32.0259 432.668 31.8943 432.668 31.7321V27.3519C432.668 27.1897 432.8 27.0582 432.962 27.0582Z" fill="black"/>
<path d="M434.435 27.5918C434.288 27.5918 434.169 27.4723 434.169 27.325C434.169 27.1776 434.288 27.0582 434.435 27.0582H437.541C437.688 27.0582 437.808 27.1776 437.808 27.325C437.808 27.4723 437.688 27.5918 437.541 27.5918H437.045C436.623 27.5918 436.282 27.9334 436.282 28.3547V31.7321C436.282 31.8943 436.15 32.0259 435.988 32.0259C435.826 32.0259 435.694 31.8943 435.694 31.7321V28.3547C435.694 27.9334 435.353 27.5918 434.931 27.5918H434.435Z" fill="black"/>
<path d="M441.632 28.3001C441.481 28.3001 441.362 28.1834 441.3 28.0468C441.241 27.9189 441.149 27.8125 441.022 27.7276C440.82 27.5918 440.572 27.5239 440.278 27.5239C440.063 27.5239 439.875 27.5595 439.714 27.6306C439.555 27.7018 439.43 27.7996 439.34 27.9241C439.252 28.0486 439.207 28.1901 439.207 28.3486C439.207 28.4812 439.238 28.5952 439.3 28.6906C439.363 28.7844 439.443 28.8628 439.541 28.9259C439.639 28.9873 439.742 29.0383 439.849 29.0787C439.957 29.1175 440.056 29.1491 440.146 29.1733L440.638 29.3091C440.765 29.3431 440.905 29.39 441.06 29.4498C441.216 29.5097 441.366 29.5913 441.508 29.6948C441.652 29.7967 441.77 29.9277 441.863 30.0878C441.956 30.2479 442.003 30.4443 442.003 30.6772C442.003 30.9456 441.934 31.1882 441.797 31.4049C441.661 31.6216 441.462 31.7938 441.2 31.9216C440.939 32.0493 440.623 32.1132 440.25 32.1132C439.902 32.1132 439.601 32.0558 439.347 31.941C439.094 31.8262 438.895 31.6661 438.75 31.4607C438.666 31.3406 438.603 31.2091 438.562 31.0662C438.513 30.8967 438.656 30.7451 438.833 30.7451C438.991 30.7451 439.115 30.8706 439.176 31.0165C439.207 31.0884 439.247 31.1532 439.297 31.2108C439.406 31.3321 439.544 31.4227 439.71 31.4825C439.877 31.5407 440.057 31.5698 440.25 31.5698C440.474 31.5698 440.675 31.5326 440.854 31.4583C441.032 31.3823 441.174 31.2771 441.278 31.1429C441.382 31.0071 441.434 30.8486 441.434 30.6675C441.434 30.5026 441.389 30.3683 441.299 30.2648C441.209 30.1614 441.091 30.0773 440.944 30.0126C440.797 29.9479 440.638 29.8913 440.468 29.8428L439.871 29.6681C439.492 29.5566 439.192 29.3973 438.97 29.1903C438.749 28.9833 438.639 28.7124 438.639 28.3777C438.639 28.0996 438.712 27.857 438.859 27.65C439.008 27.4414 439.207 27.2797 439.456 27.1649C439.707 27.0484 439.988 26.9902 440.297 26.9902C440.61 26.9902 440.888 27.0476 441.131 27.1625C441.374 27.2757 441.567 27.4309 441.709 27.6282C441.793 27.7428 441.853 27.8665 441.891 27.9991C441.937 28.1597 441.799 28.3001 441.632 28.3001Z" fill="black"/>
<ellipse cx="428.453" cy="45.5612" rx="3.30468" ry="3.20184" fill="#F3BA4D"/>
<path d="M228.527 45.0018C218.476 49.3169 206.718 44.9204 202.264 35.1822C197.811 25.4439 202.348 14.0514 212.399 9.7364C222.45 5.42138 234.209 9.8178 238.662 19.5561" stroke="#1D4B44" stroke-width="2"/>
<path d="M264.017 29.7923C268.228 39.0012 263.951 49.8015 254.396 53.9032C244.827 58.0117 233.657 53.8134 229.437 44.5866C225.226 35.3776 229.503 24.5774 239.058 20.4756C248.627 16.3672 259.797 20.5655 264.017 29.7923Z" fill="#F3BA4D" fill-opacity="0.3" stroke="#1D4B44" stroke-width="2"/>
<path d="M370.843 33.0489C371.428 32.4632 371.428 31.5134 370.843 30.9276L361.297 21.3817C360.711 20.7959 359.761 20.7959 359.175 21.3817C358.589 21.9675 358.589 22.9172 359.175 23.503L367.661 31.9883L359.175 40.4736C358.589 41.0593 358.589 42.0091 359.175 42.5949C359.761 43.1807 360.711 43.1807 361.297 42.5949L370.843 33.0489ZM278.82 33.4883H284.884V30.4883H278.82V33.4883ZM290.949 33.4883H303.077V30.4883H290.949V33.4883ZM309.141 33.4883H321.269V30.4883H309.141V33.4883ZM327.333 33.4883H339.461V30.4883H327.333V33.4883ZM345.525 33.4883H357.654V30.4883H345.525V33.4883ZM363.718 33.4883H369.782V30.4883H363.718V33.4883Z" fill="#F7CA56"/>
</svg>
